<?xml version="1.0" encoding="UTF-8"?>
<svg version="1.1" xmlns="http://www.w3.org/2000/svg" width="1024" height="1024">
<path d="M0 0 C337.92 0 675.84 0 1024 0 C1024 337.92 1024 675.84 1024 1024 C686.08 1024 348.16 1024 0 1024 C0 686.08 0 348.16 0 0 Z " fill="#0A0D12" transform="translate(0,0)"/>
<path d="M0 0 C7.59 0 15.18 0 23 0 C23 41.58 23 83.16 23 126 C15.41 126 7.82 126 0 126 C0 123.03 0 120.06 0 117 C-0.66 117 -1.32 117 -2 117 C-2.495 118.485 -2.495 118.485 -3 120 C-13.26240671 128.55200559 -24.11587596 129.0028823 -37 128 C-47.31458888 126.5264873 -55.94606397 120.17236083 -62.46875 112.234375 C-71.85545269 98.53745169 -73.16053997 81.30343419 -70.34765625 65.28515625 C-66.68719707 53.32975095 -59.21268454 42.5237452 -48.15625 36.43359375 C-37.40005631 31.35909915 -25.87226282 30.0357694 -14.4296875 33.9375 C-9.84264237 35.94341041 -4.57895052 38.42104948 -1 42 C-0.67 28.14 -0.34 14.28 0 0 Z " fill="#6B58B8" transform="translate(422,447)"/>
<path d="M0 0 C1.12591553 0.00523682 2.25183105 0.01047363 3.41186523 0.01586914 C4.62680664 0.0190918 5.84174805 0.02231445 7.09350586 0.02563477 C8.37290039 0.03401367 9.65229492 0.04239258 10.97045898 0.05102539 C12.2537207 0.05553711 13.53698242 0.06004883 14.85913086 0.06469727 C18.04211921 0.07652994 21.22501661 0.09301471 24.40795898 0.11352539 C28.42699253 9.45132046 32.01990043 18.92690272 35.56542969 28.4519043 C37.22974687 32.92284063 38.90146736 37.39101037 40.57202148 41.85961914 C40.90393494 42.7480954 41.23584839 43.63657166 41.57781982 44.55197144 C44.32981714 51.91531063 47.11220452 59.26667901 49.90795898 66.61352539 C51.74319116 71.44613927 53.57622315 76.27958535 55.40795898 81.11352539 C55.71254028 81.91709473 56.01712158 82.72066406 56.33093262 83.54858398 C58.39327785 88.99144297 60.45060545 94.4361669 62.50292969 99.8828125 C63.18465538 101.69013694 63.86774103 103.49694904 64.55224609 105.30322266 C65.51041263 107.83237769 66.46365184 110.36333885 67.41577148 112.89477539 C67.70376617 113.65177734 67.99176086 114.4087793 68.28848267 115.1887207 C68.55365692 115.89673828 68.81883118 116.60475586 69.09204102 117.33422852 C69.32311554 117.94625122 69.55419006 118.55827393 69.79226685 119.18884277 C70.51443433 121.44637234 70.94311966 123.78932875 71.40795898 126.11352539 C63.15795898 126.11352539 54.90795898 126.11352539 46.40795898 126.11352539 C44.94358398 122.27727539 43.47920898 118.44102539 41.97045898 114.48852539 C41.50969971 113.29018066 41.04894043 112.09183594 40.57421875 110.85717773 C40.21126709 109.89763184 39.84831543 108.93808594 39.47436523 107.94946289 C39.10255127 106.97541504 38.7307373 106.00136719 38.34765625 104.99780273 C37.40795898 102.11352539 37.40795898 102.11352539 36.40795898 96.11352539 C11.16295898 96.60852539 11.16295898 96.60852539 -14.59204102 97.11352539 C-17.8411264 106.28222392 -17.8411264 106.28222392 -21.08398438 115.453125 C-21.4875415 116.58758057 -21.89109863 117.72203613 -22.30688477 118.89086914 C-22.72059326 120.0586792 -23.13430176 121.22648926 -23.56054688 122.4296875 C-24.59204102 125.11352539 -24.59204102 125.11352539 -25.59204102 126.11352539 C-27.44573713 126.20090184 -29.30271642 126.22050692 -31.15844727 126.21118164 C-32.2831543 126.20795898 -33.40786133 126.20473633 -34.56665039 126.20141602 C-35.7506543 126.19303711 -36.9346582 126.1846582 -38.15454102 126.17602539 C-39.34241211 126.17151367 -40.5302832 126.16700195 -41.75415039 126.16235352 C-44.70016328 126.15052214 -47.64607782 126.13403826 -50.59204102 126.11352539 C-50.0553205 122.42716373 -49.37413849 119.1483547 -47.93969727 115.71118164 C-47.58520508 114.8467041 -47.23071289 113.98222656 -46.86547852 113.09155273 C-46.26606445 111.6483667 -46.26606445 111.6483667 -45.65454102 110.17602539 C-40.63098732 97.84395085 -35.84268838 85.42791085 -31.09204102 72.98852539 C-30.32465786 70.98127024 -29.55724222 68.9740275 -28.78979492 66.96679688 C-25.53332038 58.4463429 -22.28197765 49.92393432 -19.03295898 41.40063477 C-16.93585091 35.89923432 -14.83638144 30.39873973 -12.7355957 24.89874268 C-11.54371264 21.77565921 -10.35495136 18.65139892 -9.16625977 15.52709961 C-8.44246145 13.63136793 -7.71851153 11.73569413 -6.99438477 9.84008789 C-6.66296982 8.96640564 -6.33155487 8.09272339 -5.99009705 7.19256592 C-3.29109701 0.14414242 -3.29109701 0.14414242 0 0 Z " fill="#6B57B8" transform="translate(276.592041015625,446.886474609375)"/>
<path d="M0 0 C6.23359187 5.69750297 9.5410171 14.29212262 10.34777832 22.56723022 C10.46045482 26.62814443 10.45136375 30.66937763 10.390625 34.73046875 C10.38314634 36.21689587 10.37746111 37.70333298 10.37347412 39.18977356 C10.35834521 43.06479057 10.31917742 46.93918895 10.2746582 50.81396484 C10.23342681 54.78279252 10.21540419 58.7517221 10.1953125 62.72070312 C10.1526672 70.4807808 10.08242602 78.24022422 10 86 C2.74 86 -4.52 86 -12 86 C-12.495 82.04 -12.495 82.04 -13 78 C-13.60585938 78.47050781 -14.21171875 78.94101562 -14.8359375 79.42578125 C-26.25509235 87.9110917 -37.96434499 89.85860272 -52 88 C-59.22004084 85.90978669 -64.79821069 82.438596 -68.88671875 76.05859375 C-72.96561016 68.51622262 -74.74988857 61.00230594 -72.2734375 52.5078125 C-67.7908601 41.68402804 -60.444759 37.35583423 -50 33 C-46.66965334 31.89866701 -43.48230193 31.38998111 -40 31 C-39.29117676 30.91411621 -38.58235352 30.82823242 -37.85205078 30.73974609 C-29.54456396 29.73853996 -21.37611142 28.86582888 -13 29 C-13.61580722 24.12662908 -14.27267122 20.83376713 -17.5625 17.0625 C-24.76834518 12.03919447 -34.59746842 12.21075877 -43 13 C-50.66831639 14.68859634 -56.93503197 17.46751598 -64 21 C-64 14.07 -64 7.14 -64 0 C-44.09052224 -9.95473888 -19.42269684 -12.60229896 0 0 Z " fill="#6C59BA" transform="translate(534,487)"/>
<path d="M0 0 C7.59 0 15.18 0 23 0 C23.33 14.19 23.66 28.38 24 43 C27.3 40.69 30.6 38.38 34 36 C40.14787533 33.05814559 45.23558779 32.53275802 52 32.625 C52.85078125 32.61339844 53.7015625 32.60179687 54.578125 32.58984375 C62.07862533 32.62435525 68.80484206 34.14366821 74.5546875 39.359375 C83.85581018 49.91740616 84.29422856 61.06174947 84.1953125 74.4375 C84.19157647 75.92822072 84.18873229 77.41894391 84.18673706 78.90966797 C84.17914703 82.80917288 84.15953904 86.70852581 84.1373291 90.60797119 C84.11677022 94.59669947 84.10771399 98.58545261 84.09765625 102.57421875 C84.07628815 110.38288939 84.04114452 118.19140393 84 126 C76.41 126 68.82 126 61 126 C60.98598145 123.2455957 60.98598145 123.2455957 60.97167969 120.43554688 C60.93604964 114.3445249 60.88218698 108.25387359 60.81609726 102.16310883 C60.77671524 98.47297987 60.74448186 94.78308622 60.72900391 91.09277344 C60.71377536 87.52630417 60.67922247 83.96048219 60.63169098 80.39430237 C60.6097991 78.38271962 60.6075316 76.37095392 60.60565186 74.35925293 C60.49101391 67.1463132 60.04028746 62.06869166 56 56 C50.28558552 52.19039035 43.70069424 51.93707261 37 53 C31.66926438 55.22594231 27.0596429 58.00390427 24 63 C23.52900955 65.94484942 23.52900955 65.94484942 23.56762695 69.23730469 C23.54783279 70.49830994 23.52803864 71.75931519 23.50764465 73.05853271 C23.50087541 74.42964529 23.49442848 75.80075949 23.48828125 77.171875 C23.47143099 78.57864957 23.45328027 79.98540911 23.43388367 81.39215088 C23.38641461 85.08774114 23.35658559 88.78327048 23.33044434 92.47906494 C23.30062295 96.25309276 23.25409811 100.02691074 23.20898438 103.80078125 C23.12298642 111.20043465 23.05717046 118.60005743 23 126 C15.41 126 7.82 126 0 126 C0 84.42 0 42.84 0 0 Z " fill="#6C59BB" transform="translate(716,447)"/>
<path d="M0 0 C0 6.6 0 13.2 0 20 C-1.5675 19.236875 -3.135 18.47375 -4.75 17.6875 C-14.3268181 13.36565388 -25.6572887 9.65923928 -36.171875 12.609375 C-38.91968955 13.72212635 -40.89884383 14.89884383 -43 17 C-43.62562392 22.542965 -43.62562392 22.542965 -41.375 27.375 C-35.46558075 31.41828686 -28.71851303 31.56955418 -21.80859375 32.12304688 C-11.75721914 33.07016282 -4.79336114 36.37915676 2 44 C6.24458353 50.22463054 6.86364455 56.63236563 6 64 C4.40911902 72.13847376 0.22288083 79.04318591 -6.625 83.8125 C-19.89623627 91.15509053 -38.0380583 91.1099483 -52.4375 87.1875 C-57.03108155 85.82353551 -60.63756554 84.18121723 -65 82 C-65 75.07 -65 68.14 -65 61 C-62.875625 62.11375 -60.75125 63.2275 -58.5625 64.375 C-50.16324766 68.60400092 -43.34179189 70.13231374 -33.875 70.3125 C-33.20549316 70.33046631 -32.53598633 70.34843262 -31.84619141 70.36694336 C-26.77819456 70.35756513 -23.39920896 69.34222223 -19 67 C-16.54589642 63.31884463 -16.76712157 61.34706402 -17 57 C-17.33 56.01 -17.66 55.02 -18 54 C-20.37625345 52.81608777 -20.37625345 52.81608777 -23 52 C-23.99 51.67 -24.98 51.34 -26 51 C-27.33920549 50.85725958 -28.68276146 50.75288274 -30.02734375 50.67578125 C-41.57422177 49.85869034 -52.18452732 48.51134481 -60.5625 39.625 C-65.02845712 33.59134702 -66.70599753 27.43976015 -66.4765625 19.94140625 C-65.25299508 12.38938769 -61.28912022 4.89279606 -55.125 0.2421875 C-37.46994231 -10.07823225 -18.01445021 -9.00722511 0 0 Z " fill="#6D5ABB" transform="translate(694,486)"/>
<path d="M0 0 C0 7.59 0 15.18 0 23 C-9 23.1875 -9 23.1875 -11.78515625 23.20776367 C-18.842326 23.47180229 -23.42827448 25.82168954 -28.66015625 30.47729492 C-31.3454175 33.52903953 -31.14660014 36.79752377 -31.20532227 40.66479492 C-31.22526749 41.82577194 -31.24521271 42.98674896 -31.26576233 44.1829071 C-31.29083107 46.06270012 -31.29083107 46.06270012 -31.31640625 47.98046875 C-31.33718735 49.26359451 -31.35796844 50.54672028 -31.37937927 51.86872864 C-31.43451906 55.27662815 -31.48396389 58.68458741 -31.53222656 62.09259033 C-31.58250079 65.57154648 -31.63815591 69.05041607 -31.69335938 72.52929688 C-31.80084191 79.3527911 -31.9018114 86.17636577 -32 93 C-39.92 93 -47.84 93 -56 93 C-56 62.97 -56 32.94 -56 2 C-48.41 2 -40.82 2 -33 2 C-32.67 5.3 -32.34 8.6 -32 12 C-30.906875 10.948125 -29.81375 9.89625 -28.6875 8.8125 C-19.65504267 1.01606315 -11.7782695 -0.6332403 0 0 Z " fill="#6A57B8" transform="translate(619,480)"/>
<path d="M0 0 C2.55857329 1.21874025 4.72462783 2.39508853 6.99609375 4.09375 C8.59517578 5.19009766 8.59517578 5.19009766 10.2265625 6.30859375 C14.26150052 10.47236775 13.83384876 15.81856255 13.81640625 21.29882812 C13.80383789 21.99435791 13.79126953 22.6898877 13.77832031 23.40649414 C13.7461995 25.52427764 13.77802618 27.63440673 13.81640625 29.75195312 C13.85228922 40.99420374 13.85228922 40.99420374 10.23046875 45.3515625 C8.58300781 46.86401367 8.58300781 46.86401367 6.99609375 48.09375 C5.866875 49.08181641 5.866875 49.08181641 4.71484375 50.08984375 C-2.33993212 54.67296399 -8.7315326 55.22045322 -17.00390625 54.09375 C-23.69260358 52.34887244 -28.21009324 47.71421372 -32.00390625 42.09375 C-35.91599946 34.76897974 -36.26563637 25.70753474 -34.46484375 17.6953125 C-29.07108419 2.22529881 -15.66847032 -4.72702876 0 0 Z " fill="#0A0C12" transform="translate(409.00390625,500.90625)"/>
<path d="M0 0 C4.93806591 1.42283255 9.08121825 3.65372178 13.4375 6.3125 C20.2546739 10.39904003 27.13159166 14.35957342 34.0625 18.25 C42.08477377 22.76156919 50.05914902 27.34666779 58 32 C66.22608535 36.81301291 74.4688881 41.59468023 82.75 46.3125 C83.72066406 46.87001953 84.69132812 47.42753906 85.69140625 48.00195312 C86.59246094 48.51306641 87.49351562 49.02417969 88.421875 49.55078125 C89.21174805 50.00106689 90.00162109 50.45135254 90.81542969 50.9152832 C92.88579672 51.94329401 94.7420903 52.54295019 97 53 C103.40241858 46.59758142 105.32659685 36.754241 106 28 C106.66 28 107.32 28 108 28 C108.09796875 28.82242187 108.1959375 29.64484375 108.296875 30.4921875 C109.51116014 39.55745413 111.06598295 49.43093122 118 56 C124.63366574 60.94735071 130.81001008 63.09692126 139 64 C139 64.33 139 64.66 139 65 C138.154375 65.15855469 137.30875 65.31710937 136.4375 65.48046875 C126.3665122 67.55188783 119.24606005 70.12218253 113.25 78.7578125 C109.94490961 84.68631839 108.72637984 91.31730545 108 98 C107.34 97.67 106.68 97.34 106 97 C105.51630842 94.82633723 105.11344357 92.63446976 104.75 90.4375 C103.42788662 83.90001473 101.67112815 79.72865436 97 75 C96.113125 74.0925 95.22625 73.185 94.3125 72.25 C88.73516361 67.89408556 80.9382681 65.75008304 74 65 C74 64.67 74 64.34 74 64 C77.96 63.34 81.92 62.68 86 62 C86 61.34 86 60.68 86 60 C85.11908691 59.73010254 84.23817383 59.46020508 83.33056641 59.18212891 C80.18715157 58.06642632 77.58080795 56.76979811 74.7109375 55.0859375 C73.70144043 54.49804443 72.69194336 53.91015137 71.65185547 53.30444336 C70.57049316 52.66772705 69.48913086 52.03101074 68.375 51.375 C66.63238391 50.35878201 64.88975592 49.34258394 63.14651489 48.32743835 C61.93591754 47.62227611 60.72569713 46.91646638 59.51583862 46.21003723 C53.57679659 42.74417601 47.6046774 39.33747551 41.62860107 35.93600464 C31.97623076 30.43992193 22.34749097 24.9039586 12.75 19.3125 C11.78046387 18.74845459 10.81092773 18.18440918 9.81201172 17.60327148 C4.48224661 14.49039879 -0.78386647 11.2998779 -6 8 C-5.34 7.67 -4.68 7.34 -4 7 C-1.96855359 7.93446535 0.03533587 8.93224776 2 10 C1.34 8.35 0.68 6.7 0 5 C0.66 4.34 1.32 3.68 2 3 C1.34 2.01 0.68 1.02 0 0 Z " fill="#8A74D3" transform="translate(416,322)"/>
<path d="M0 0 C0.66 0.33 1.32 0.66 2 1 C4 0.66666667 6 0.33333333 8 0 C10.67379757 -0.08656179 13.3236713 -0.0461436 16 0 C15.34 0.33 14.68 0.66 14 1 C14 1.66 14 2.32 14 3 C15.32 3.33 16.64 3.66 18 4 C18 5.32 18 6.64 18 8 C17.34 8.33 16.68 8.66 16 9 C17.98 9.33 19.96 9.66 22 10 C22 10.33 22 10.66 22 11 C20.83984375 11.14695312 20.83984375 11.14695312 19.65625 11.296875 C12.15157862 12.37427832 5.88021794 13.72606611 0 18.6875 C-1.61878859 22.43094861 -1.63603767 25.99796522 -1 30 C0.84396331 33.33331828 2.23653166 34.61826583 5.625 36.3125 C10.11664194 37.2274641 14.43370208 37.16243748 19 37 C18.8125 39.875 18.8125 39.875 18 43 C15.5 44.125 15.5 44.125 13 45 C12.11306697 47.04105639 12.11306697 47.04105639 12 49 C12.66 49 13.32 49 14 49 C14 49.66 14 50.32 14 51 C11.03 51.495 11.03 51.495 8 52 C9.32 52.66 10.64 53.32 12 54 C1.41391915 54.72544209 -7.05933644 54.57607492 -16 48 C-22.08474717 42.12090034 -25.07577532 34.94051023 -25.4375 26.5625 C-25.21735896 19.33787118 -22.55462061 12.83527899 -17.68359375 7.41796875 C-12.70809301 3.2274658 -6.67022374 -0.66245373 0 0 Z " fill="#6C59BA" transform="translate(486,521)"/>
<path d="M0 0 C4.93806591 1.42283255 9.08121825 3.65372178 13.4375 6.3125 C20.25467319 10.3990396 27.13157385 14.35960514 34.0625 18.25 C43.24837759 23.41551902 52.36419227 28.69213859 61.45727539 34.01904297 C69.58564689 38.77491183 77.76894004 43.42449902 86 48 C86 48.66 86 49.32 86 50 C88.31 51.32 90.62 52.64 93 54 C92.38125 54.20625 91.7625 54.4125 91.125 54.625 C88.15346355 56.54775888 87.86975341 58.66594527 87 62 C86.67 61.34 86.34 60.68 86 60 C84.0071643 59.31221345 82.00585472 58.64883841 80 58 C78.21018767 57.07894452 76.44706127 56.10458642 74.7109375 55.0859375 C73.70144043 54.49804443 72.69194336 53.91015137 71.65185547 53.30444336 C70.57049316 52.66772705 69.48913086 52.03101074 68.375 51.375 C66.63238391 50.35878201 64.88975592 49.34258394 63.14651489 48.32743835 C61.93591754 47.62227611 60.72569713 46.91646638 59.51583862 46.21003723 C53.57679659 42.74417601 47.6046774 39.33747551 41.62860107 35.93600464 C31.97623076 30.43992193 22.34749097 24.9039586 12.75 19.3125 C11.78046387 18.74845459 10.81092773 18.18440918 9.81201172 17.60327148 C4.48224661 14.49039879 -0.78386647 11.2998779 -6 8 C-5.34 7.67 -4.68 7.34 -4 7 C-1.96855359 7.93446535 0.03533587 8.93224776 2 10 C1.34 8.35 0.68 6.7 0 5 C0.66 4.34 1.32 3.68 2 3 C1.34 2.01 0.68 1.02 0 0 Z " fill="#4E4487" transform="translate(416,322)"/>
<path d="M0 0 C1.94526817 2.91790225 2.84544066 5.21894408 3.91796875 8.53125 C4.28220947 9.6437915 4.6464502 10.75633301 5.02172852 11.90258789 C5.40643311 13.08973389 5.7911377 14.27687988 6.1875 15.5 C9.26424474 24.88685939 12.44984945 34.20631858 15.9675293 43.4375 C18 48.8072524 18 48.8072524 18 51 C6.12 51 -5.76 51 -18 51 C-16.16357384 44.87857946 -14.3188549 38.84363194 -12.1875 32.83203125 C-11.93250732 32.10811691 -11.67751465 31.38420258 -11.41479492 30.63835144 C-10.88152606 29.12641302 -10.34709531 27.61488392 -9.81152344 26.10375977 C-8.99841836 23.80803439 -8.19038828 21.51056609 -7.3828125 19.21289062 C-6.85967699 17.73166414 -6.33624957 16.25054072 -5.8125 14.76953125 C-5.57490967 14.0933223 -5.33731934 13.41711334 -5.0925293 12.72041321 C-3.55670378 8.40043389 -1.84415118 4.19795992 0 0 Z " fill="#0A0C10" transform="translate(287,472)"/>
<path d="M0 0 C1.03236822 15.92523567 1.03236822 15.92523567 -2.5 20.25 C-8.26118546 25.45277268 -14.75264522 27.68538113 -22.375 28.25 C-27.70611318 27.88233702 -31.40603026 26.38961465 -35.4375 22.875 C-37.62521215 18.84960965 -37.78428118 15.48510801 -37 11 C-34.36925374 6.06735075 -30.03167587 4.00480835 -25 2 C-22.06167158 1.14865728 -19.32233162 0.821654 -16.26953125 0.68359375 C-15.38458984 0.64169922 -14.49964844 0.59980469 -13.58789062 0.55664062 C-12.67201172 0.51732422 -11.75613281 0.47800781 -10.8125 0.4375 C-9.88501953 0.39431641 -8.95753906 0.35113281 -8.00195312 0.30664062 C-1.34833829 0 -1.34833829 0 0 0 Z " fill="#0B0C12" transform="translate(521,531)"/>
<path d="M0 0 C1.65 0.33 3.3 0.66 5 1 C5.33 1.99 5.66 2.98 6 4 C5.67 4.66 5.34 5.32 5 6 C11.3079086 8.84371005 11.3079086 8.84371005 18 10 C18.66 8.02 19.32 6.04 20 4 C23.90071511 5.45268011 27.4074867 7.27268085 31.015625 9.34375 C31.5846907 9.6692131 32.15375641 9.99467621 32.74006653 10.33000183 C34.57883027 11.38302574 36.4146725 12.44099975 38.25 13.5 C39.51357116 14.22765402 40.77716174 14.95527431 42.04077148 15.68286133 C43.9286615 16.77042488 45.81616876 17.8586297 47.70262146 18.94868469 C51.29563941 21.02400165 54.90059607 23.07573295 58.51953125 25.10546875 C60.03399901 25.96589094 61.54833536 26.82654449 63.0625 27.6875 C64.07715332 28.24630859 64.07715332 28.24630859 65.11230469 28.81640625 C68.9408012 31.01904781 71.08667904 32.99814554 73 37 C72.01 37.99 72.01 37.99 71 39 C71.66 39.33 72.32 39.66 73 40 C72.67 41.32 72.34 42.64 72 44 C70.6696875 43.2884375 70.6696875 43.2884375 69.3125 42.5625 C66.26216555 40.9282531 66.26216555 40.9282531 63.7578125 40.66796875 C59.93994358 39.74324413 56.87894721 37.77849896 53.5625 35.75 C52.05085988 34.84361884 50.53913682 33.93737602 49.02734375 33.03125 C48.22022949 32.54398437 47.41311523 32.05671875 46.58154297 31.5546875 C41.94399095 28.76180578 37.28361919 26.00753977 32.625 23.25 C31.73498291 22.71987305 30.84496582 22.18974609 29.92797852 21.64355469 C24.51207562 18.43079039 19.03761277 15.35738886 13.49902344 12.36132812 C10.40023718 10.67328278 7.35399049 8.91411206 4.3125 7.125 C3.29800781 6.52945312 2.28351563 5.93390625 1.23828125 5.3203125 C0.49964844 4.88460938 -0.23898437 4.44890625 -1 4 C-0.67 2.68 -0.34 1.36 0 0 Z " fill="#383464" transform="translate(346,289)"/>
<path d="M0 0 C3.5578125 -0.12375 3.5578125 -0.12375 7.1875 -0.25 C7.92508545 -0.28641602 8.6626709 -0.32283203 9.42260742 -0.36035156 C12.9230872 -0.41896864 14.87026161 -0.08000239 17.86328125 1.765625 C22.03964985 6.13286968 22.4418869 9.63098531 22.3203125 15.52734375 C21.74422639 19.97444748 19.42413442 22.60883166 16.3125 25.6484375 C11.5593618 28.42645409 5.30235759 27.14728771 0 27 C0 18.09 0 9.18 0 0 Z " fill="#666C8D" transform="translate(516,625)"/>
<path d="M0 0 C14.19642857 -0.66964286 14.19642857 -0.66964286 17.8125 2.375 C21.56336152 6.87603382 21.33330538 10.27118785 21.28515625 16.0078125 C20.88204466 20.23772312 19.90351501 21.9351786 17 25 C13 27 13 27 0 27 C0 18.09 0 9.18 0 0 Z " fill="#787FA6" transform="translate(467,625)"/>
<path d="M0 0 C6.03028022 1.62546655 11.08969065 4.74951087 16.4375 7.875 C17.81131836 8.66970703 17.81131836 8.66970703 19.21289062 9.48046875 C20.99324257 10.51059342 22.77242594 11.54274101 24.55029297 12.57714844 C27.69090221 14.40129341 30.84394357 16.20274091 34 18 C34 18.66 34 19.32 34 20 C36.31 21.32 38.62 22.64 41 24 C40.38125 24.20625 39.7625 24.4125 39.125 24.625 C36.15346355 26.54775888 35.86975341 28.66594527 35 32 C34.505 31.01 34.505 31.01 34 30 C32.00511266 29.31818701 30.0040834 28.65428906 28 28 C25.97550269 26.95044117 23.97862529 25.84641535 22.0078125 24.69921875 C20.33138672 23.72758789 20.33138672 23.72758789 18.62109375 22.73632812 C17.45572153 22.05339845 16.29035699 21.37045566 15.125 20.6875 C13.96772406 20.01580005 12.81017394 19.34457226 11.65234375 18.67382812 C5.70341401 15.21331721 -0.19049935 11.68981798 -6 8 C-3.57333205 6.78666603 -1.66500278 7 1 7 C1.33 5.68 1.66 4.36 2 3 C2.33 3 2.66 3 3 3 C2.01 2.01 1.02 1.02 0 0 Z " fill="#5E50A3" transform="translate(468,352)"/>
<path d="M0 0 C2.371875 -0.103125 4.74375 -0.20625 7.1875 -0.3125 C7.92508545 -0.35802002 8.6626709 -0.40354004 9.42260742 -0.45043945 C13.29752809 -0.53154853 14.87565274 -0.0970435 17.953125 2.3046875 C20 5 20 5 20.5625 8.4375 C19.91647961 12.52896245 18.52724006 14.76197367 16 18 C16.66 19.11375 17.32 20.2275 18 21.375 C20 24.75 20 24.75 20 27 C17.75 26.9375 17.75 26.9375 15 26 C14.03963645 24.20732137 13.08172976 22.4125655 12.1796875 20.58984375 C10.93620867 18.56266074 10.93620867 18.56266074 7.25 18.0625 C6.1775 18.041875 5.105 18.02125 4 18 C4 20.97 4 23.94 4 27 C2.68 27 1.36 27 0 27 C0 18.09 0 9.18 0 0 Z " fill="#646A8A" transform="translate(773,625)"/>
<path d="M0 0 C2.371875 -0.103125 4.74375 -0.20625 7.1875 -0.3125 C7.92508545 -0.35802002 8.6626709 -0.40354004 9.42260742 -0.45043945 C13.29280281 -0.53144962 14.87826251 -0.09455963 17.95703125 2.296875 C20 5 20 5 20.5 8.5625 C19.992212 12.05354249 19.51856444 13.57830343 17 16 C16.34 16 15.68 16 15 16 C15.3609375 16.62648438 15.721875 17.25296875 16.09375 17.8984375 C16.78984375 19.12433594 16.78984375 19.12433594 17.5 20.375 C17.9640625 21.18710937 18.428125 21.99921875 18.90625 22.8359375 C20 25 20 25 20 27 C17.75 26.875 17.75 26.875 15 26 C11 20.91891892 11 20.91891892 11 18 C8.69 18 6.38 18 4 18 C4 20.97 4 23.94 4 27 C2.68 27 1.36 27 0 27 C0 18.09 0 9.18 0 0 Z " fill="#6B7294" transform="translate(257,625)"/>
<path d="M0 0 C0.66 0 1.32 0 2 0 C2.10957031 0.89203125 2.21914063 1.7840625 2.33203125 2.703125 C2.49058594 3.87359375 2.64914062 5.0440625 2.8125 6.25 C2.96332031 7.41015625 3.11414063 8.5703125 3.26953125 9.765625 C4.00474549 13.02101211 4.90013764 14.49167126 7 17 C7 17.66 7 18.32 7 19 C9.93720508 20.52299523 12.9168649 21.80100302 16 23 C15 25 15 25 12.1875 26.375 C7.66717756 28.67947811 5.57126131 30.43654799 3.8125 35.25 C2.9607586 39.18111414 2.42082595 43.00215344 2 47 C1.34 47 0.68 47 0 47 C-0.10957031 46.18015625 -0.21914063 45.3603125 -0.33203125 44.515625 C-0.49058594 43.43796875 -0.64914062 42.3603125 -0.8125 41.25 C-0.96332031 40.18265625 -1.11414063 39.1153125 -1.26953125 38.015625 C-2.01965535 34.91885597 -3.00944991 33.42138148 -5 31 C-5 30.34 -5 29.68 -5 29 C-8.58752742 27.13448574 -12.27812193 25.57464072 -16 24 C-15.46375 23.7525 -14.9275 23.505 -14.375 23.25 C-8.82116338 20.3269281 -4.8587172 17.7174344 -2 12 C-1.10522073 8.024333 -0.49722131 4.04319432 0 0 Z " fill="#836ECD" transform="translate(697,264)"/>
<path d="M0 0 C7.59 0 15.18 0 23 0 C23 41.58 23 83.16 23 126 C15.41 126 7.82 126 0 126 C0 123.03 0 120.06 0 117 C0.33 117 0.66 117 1 117 C1 119.31 1 121.62 1 124 C7.6 124 14.2 124 21 124 C21 83.41 21 42.82 21 1 C14.4 1 7.8 1 1 1 C1 14.53 1 28.06 1 42 C0.67 42 0.34 42 0 42 C0 28.14 0 14.28 0 0 Z " fill="#755FD2" transform="translate(422,447)"/>
<path d="M0 0 C2.371875 -0.103125 4.74375 -0.20625 7.1875 -0.3125 C7.92508545 -0.35802002 8.6626709 -0.40354004 9.42260742 -0.45043945 C13.25152376 -0.53058557 14.89860242 -0.07578275 17.984375 2.23046875 C20.13032227 5.17906684 20.60118409 6.1023692 20.0625 9.625 C19.97097656 10.38039063 19.87945313 11.13578125 19.78515625 11.9140625 C18.72832662 14.72175912 17.63004122 15.57968813 15 17 C12.203125 17.29296875 12.203125 17.29296875 9.25 17.1875 C7.77273438 17.14689453 7.77273438 17.14689453 6.265625 17.10546875 C5.51796875 17.07066406 4.7703125 17.03585937 4 17 C4 20.3 4 23.6 4 27 C2.68 27 1.36 27 0 27 C0 18.09 0 9.18 0 0 Z " fill="#696F90" transform="translate(710,625)"/>
<path d="M0 0 C1.65 0.33 3.3 0.66 5 1 C5.33 1.99 5.66 2.98 6 4 C5.67 4.66 5.34 5.32 5 6 C11.3079086 8.84371005 11.3079086 8.84371005 18 10 C18.66 8.02 19.32 6.04 20 4 C23.79049707 5.42749981 27.27122456 7.16236542 30.8125 9.125 C31.78832031 9.66382813 32.76414062 10.20265625 33.76953125 10.7578125 C34.50558594 11.16773438 35.24164063 11.57765625 36 12 C36 12.66 36 13.32 36 14 C38.24883311 15.59395916 38.24883311 15.59395916 41 17.125 C41.928125 17.66382813 42.85625 18.20265625 43.8125 18.7578125 C44.534375 19.16773438 45.25625 19.57765625 46 20 C44 21 42 22 40 23 C40.495 23.99 40.495 23.99 41 25 C39.66358148 24.67925956 38.33130115 24.34135927 37 24 C36.00742187 23.77570313 35.01484375 23.55140625 33.9921875 23.3203125 C28.79675078 21.82624417 24.31766168 18.97557974 19.6875 16.25 C18.3581543 15.48042969 18.3581543 15.48042969 17.00195312 14.6953125 C10.96530361 11.19044524 4.97717284 7.60515101 -1 4 C-0.67 2.68 -0.34 1.36 0 0 Z " fill="#29284A" transform="translate(346,289)"/>
<path d="M0 0 C4.38299083 2.19149542 7.20074724 4.40190962 9 9 C9.68829606 14.0729969 9.59408188 17.83305346 7.25 22.4375 C4.49806084 25.57165294 2.58940692 27.73707277 -1.62109375 28.43359375 C-9.18016388 28.4440779 -9.18016388 28.4440779 -13 26.375 C-16.81137922 21.84898717 -18.59942684 17.85680281 -18.3515625 11.953125 C-17.56235768 7.56865379 -14.72946042 4.7919856 -11.8125 1.625 C-7.83069703 -0.67559727 -4.4938682 -0.78464365 0 0 Z M-13 9 C-14.57455739 12.14911479 -14.34799118 14.52008816 -14 18 C-11.52981455 22.04212164 -10.06034291 23.67811019 -5.5 25.0625 C-1.58370586 24.99256618 0.00595015 24.48078416 3 22 C5.30788878 19.03271442 5.48924078 15.75026929 5.37109375 12.0390625 C4.65324872 8.09469296 3.09040106 6.57533422 0 4 C-5.93203213 2.33759583 -9.24489589 4.22077658 -13 9 Z " fill="#697092" transform="translate(689,624)"/>
<path d="M0 0 C4.36339712 2.22286269 7.23431511 4.38960056 9 9 C9.66875742 14.39959691 9.67201184 18.6319759 7.25 23.5625 C4.44224591 26.6042336 2.49859178 27.80793011 -1.62109375 28.3359375 C-9.18610215 28.44086133 -9.18610215 28.44086133 -13 26.375 C-16.22428653 22.54615974 -17.83754898 19.51620954 -18.375 14.5 C-17.75367456 8.70096254 -15.43904734 4.74544619 -11 1 C-7.27148658 -0.24283781 -3.87253239 -0.5280726 0 0 Z M-13 9 C-14.76825051 12.53650103 -14.03934815 16.27887698 -13 20 C-10.660001 23.33411623 -7.96370882 24.82299226 -3.9375 25.5625 C-0.32218892 24.87020639 1.38108416 23.54408967 4 21 C5.86524588 17.26950824 5.54848015 13.06257971 5 9 C3.00305216 5.879769 1.71300264 4.41443612 -1.9375 3.53125 C-7.27993605 3.12652 -9.64603856 4.73132181 -13 9 Z " fill="#6C7497" transform="translate(304,624)"/>
<path d="M0 0 C5 1 5 1 6.45385742 2.44287109 C6.83388916 3.04695801 7.2139209 3.65104492 7.60546875 4.2734375 C8.03150391 4.9334375 8.45753906 5.5934375 8.89648438 6.2734375 C9.32251953 6.96695313 9.74855469 7.66046875 10.1875 8.375 C10.62513672 9.06078125 11.06277344 9.7465625 11.51367188 10.453125 C12.32752974 11.73044697 13.13514401 13.01178478 13.93432617 14.29833984 C14.92735683 15.88400392 15.96218566 17.44327849 17 19 C17.33 12.73 17.66 6.46 18 0 C18.99 0 19.98 0 21 0 C21 8.91 21 17.82 21 27 C16 26 16 26 14.43847656 24.43359375 C13.79604004 23.44552734 13.79604004 23.44552734 13.140625 22.4375 C12.66496094 21.72335937 12.18929688 21.00921875 11.69921875 20.2734375 C11.22097656 19.52320313 10.74273437 18.77296875 10.25 18 C9.2764288 16.5205785 8.30248982 15.04139893 7.328125 13.5625 C6.9043457 12.90378906 6.48056641 12.24507812 6.04394531 11.56640625 C5.09112774 10.02570867 5.09112774 10.02570867 4 9 C3.67 14.94 3.34 20.88 3 27 C2.01 27 1.02 27 0 27 C0 18.09 0 9.18 0 0 Z " fill="#72799E" transform="translate(432,625)"/>
<path d="M0 0 C5.625 1.125 5.625 1.125 8.11328125 4.81640625 C8.63857422 5.58017578 9.16386719 6.34394531 9.70507812 7.13085938 C10.23552734 7.93330078 10.76597656 8.73574219 11.3125 9.5625 C12.13717773 10.77196289 12.13717773 10.77196289 12.97851562 12.00585938 C14.33211027 13.99505498 15.66781145 15.99640541 17 18 C17.33 12.06 17.66 6.12 18 0 C18.99 0 19.98 0 21 0 C21 8.91 21 17.82 21 27 C19.68 27 18.36 27 17 27 C15 24.55078125 15 24.55078125 13 21.3125 C11.02036871 18.14586323 9.10617436 15.13069031 6.75 12.23046875 C5 10 5 10 5 8 C4.34 8 3.68 8 3 8 C3 14.27 3 20.54 3 27 C2.01 27 1.02 27 0 27 C0 18.09 0 9.18 0 0 Z " fill="#777EA4" transform="translate(325,625)"/>
<path d="M0 0 C5.61 0 11.22 0 17 0 C17 1.32 17 2.64 17 4 C12.71 4 8.42 4 4 4 C4 6.31 4 8.62 4 11 C7.96 11 11.92 11 16 11 C16 12.32 16 13.64 16 15 C12.04 15 8.08 15 4 15 C4 17.64 4 20.28 4 23 C8.29 23 12.58 23 17 23 C17 24.32 17 25.64 17 27 C11.39 27 5.78 27 0 27 C0 18.09 0 9.18 0 0 Z " fill="#6A7092" transform="translate(614,625)"/>
<path d="M0 0 C5.61 0 11.22 0 17 0 C17 1.32 17 2.64 17 4 C12.71 4 8.42 4 4 4 C4 6.31 4 8.62 4 11 C7.96 11 11.92 11 16 11 C16 12.32 16 13.64 16 15 C12.04 15 8.08 15 4 15 C4 17.64 4 20.28 4 23 C8.29 23 12.58 23 17 23 C17 24.32 17 25.64 17 27 C11.39 27 5.78 27 0 27 C0 18.09 0 9.18 0 0 Z " fill="#5F6482" transform="translate(402,625)"/>
<path d="M0 0 C5.61 0 11.22 0 17 0 C17 1.32 17 2.64 17 4 C12.71 4 8.42 4 4 4 C4 6.31 4 8.62 4 11 C7.96 11 11.92 11 16 11 C16 12.32 16 13.64 16 15 C12.04 15 8.08 15 4 15 C4 17.64 4 20.28 4 23 C8.29 23 12.58 23 17 23 C17 24.32 17 25.64 17 27 C11.39 27 5.78 27 0 27 C0 18.09 0 9.18 0 0 Z " fill="#5F6582" transform="translate(743,625)"/>
<path d="M0 0 C5.61 0 11.22 0 17 0 C17 1.32 17 2.64 17 4 C12.71 4 8.42 4 4 4 C4 6.31 4 8.62 4 11 C7.63 11 11.26 11 15 11 C15 12.32 15 13.64 15 15 C11.37 15 7.74 15 4 15 C4 17.64 4 20.28 4 23 C7.96 23 11.92 23 16 23 C16 24.32 16 25.64 16 27 C10.72 27 5.44 27 0 27 C0 18.09 0 9.18 0 0 Z " fill="#686E8F" transform="translate(551,625)"/>
<path d="M0 0 C2.2477975 2.05233685 3.0022242 3.00667261 4 6 C4.08888831 7.97842761 4.11760873 9.95976634 4.11352539 11.94018555 C4.11341209 13.77174446 4.11341209 13.77174446 4.11329651 15.64030457 C4.10813522 16.95912125 4.10297394 18.27793793 4.09765625 19.63671875 C4.0957908 21.00006559 4.0943675 22.36341311 4.09336853 23.72676086 C4.08955332 27.31228491 4.07973155 30.89776835 4.06866455 34.48327637 C4.05842901 38.1431422 4.05386632 41.8030146 4.04882812 45.46289062 C4.03810838 52.64194773 4.02051965 59.820963 4 67 C10.6 67 17.2 67 24 67 C24 44.89 24 22.78 24 0 C26 2 26 2 26.24050903 4.78408813 C26.2338472 6.562798 26.2338472 6.562798 26.22705078 8.37744141 C26.22734283 9.03122269 26.22763489 9.68500397 26.22793579 10.3585968 C26.22654065 12.52305296 26.2109712 14.68716636 26.1953125 16.8515625 C26.19158302 18.35085868 26.18873574 19.8501573 26.18673706 21.34945679 C26.17909548 25.29836743 26.1594426 29.24713129 26.1373291 33.19598389 C26.1168819 37.22438572 26.10773776 41.25281124 26.09765625 45.28125 C26.07619709 53.18757492 26.04101078 61.0937523 26 69 C18.41 69 10.82 69 3 69 C2.98018066 67.15849365 2.96036133 65.3169873 2.93994141 63.41967773 C2.87200943 57.31676919 2.79522221 51.2140216 2.71247292 45.11129665 C2.66265191 41.41334682 2.61632142 37.7154236 2.578125 34.01733398 C2.54109181 30.44455459 2.49468463 26.87200584 2.44193649 23.29942513 C2.42348786 21.94041069 2.40834519 20.58134699 2.39665604 19.22225761 C2.35011904 9.42308125 2.35011904 9.42308125 0 0 Z " fill="#7763D0" transform="translate(774,504)"/>
<path d="M0 0 C9 0 9 0 11.5625 1.375 C13.82769935 5.51145099 13.83905521 9.40375954 13 14 C11 17.125 11 17.125 8 19 C5.36 19 2.72 19 0 19 C0 12.73 0 6.46 0 0 Z " fill="#080A0E" transform="translate(471,629)"/>
<path d="M0 0 C9 0 9 0 11.5625 2 C13.40331237 5.84169538 13.71878226 8.81415036 13 13 C10.86111111 17.56944444 10.86111111 17.56944444 8 19 C5.36 19 2.72 19 0 19 C0 12.73 0 6.46 0 0 Z " fill="#090B0F" transform="translate(521,629)"/>
<path d="M0 0 C1.32 0 2.64 0 4 0 C6.64 6.6 9.28 13.2 12 20 C14.10131245 13.79968229 14.10131245 13.79968229 16.15698242 7.58422852 C16.42873291 6.81522217 16.7004834 6.04621582 16.98046875 5.25390625 C17.24754639 4.46314697 17.51462402 3.6723877 17.78979492 2.85766602 C19 1 19 1 21.6262207 0.23413086 C22.40956787 0.15686768 23.19291504 0.07960449 24 0 C21.0917277 9.18671896 17.65132961 18.09075574 14 27 C11.65356445 26.81396484 11.65356445 26.81396484 9 26 C7.60620117 23.82275391 7.60620117 23.82275391 6.54296875 20.9765625 C6.15302734 19.955625 5.76308594 18.9346875 5.36132812 17.8828125 C4.97396484 16.80773437 4.58660156 15.73265625 4.1875 14.625 C3.78080078 13.55765625 3.37410156 12.4903125 2.95507812 11.390625 C0 3.50379464 0 3.50379464 0 0 Z " fill="#697194" transform="translate(579,625)"/>
<path d="M0 0 C5.61 0 11.22 0 17 0 C17 1.32 17 2.64 17 4 C12.71 4 8.42 4 4 4 C4 6.31 4 8.62 4 11 C7.96 11 11.92 11 16 11 C16 12.32 16 13.64 16 15 C12.04 15 8.08 15 4 15 C4 18.96 4 22.92 4 27 C2.68 27 1.36 27 0 27 C0 18.09 0 9.18 0 0 Z " fill="#686F8F" transform="translate(228,625)"/>
<path d="M0 0 C4.54104355 1.26726797 7.45154396 2.91844607 11 6 C13.78837702 8.20011183 16.63127116 9.9905446 19.75 11.6875 C20.54921875 12.12449219 21.3484375 12.56148438 22.171875 13.01171875 C23.07679688 13.50091797 23.07679688 13.50091797 24 14 C23.01 15.485 23.01 15.485 22 17 C21.34 16.67 20.68 16.34 20 16 C20.33 15.34 20.66 14.68 21 14 C20.34 14 19.68 14 19 14 C19 15.98 19 17.96 19 20 C12.59218024 18.58260208 7.09908326 16.1776766 1.4375 12.9375 C0.81794434 12.58494141 0.19838867 12.23238281 -0.43994141 11.86914062 C-4.86596844 9.26806313 -4.86596844 9.26806313 -6 7 C-4.5459375 7.495 -4.5459375 7.495 -3.0625 8 C-0.37850426 9.05173363 -0.37850426 9.05173363 1 9 C0.79375 8.38125 0.5875 7.7625 0.375 7.125 C0.25125 6.42375 0.1275 5.7225 0 5 C0.66 4.34 1.32 3.68 2 3 C1.34 2.01 0.68 1.02 0 0 Z " fill="#453E7A" transform="translate(416,322)"/>
<path d="M0 0 C6.93 0 13.86 0 21 0 C21 1.32 21 2.64 21 4 C18.36 4 15.72 4 13 4 C13 11.59 13 19.18 13 27 C11.35 27 9.7 27 8 27 C8 19.41 8 11.82 8 4 C5.36 4 2.72 4 0 4 C0 2.68 0 1.36 0 0 Z " fill="#636989" transform="translate(357,625)"/>
<path d="M0 0 C0.33 0 0.66 0 1 0 C1.14695312 0.88751953 1.14695312 0.88751953 1.296875 1.79296875 C2.24706228 6.81421704 3.15518771 10.37489127 7 14 C9.61818456 15.33298974 9.61818456 15.33298974 12 16 C11.443125 16.226875 10.88625 16.45375 10.3125 16.6875 C5.96917961 19.15262779 3.06573713 21.98378267 1.6875 26.8125 C1.3471875 28.3903125 1.3471875 28.3903125 1 30 C-1 27 -1 27 -2.75 23.5 C-4.78544868 19.85315446 -7.078181 18.51524825 -11 17 C-11 16.34 -11 15.68 -11 15 C-10.071875 14.608125 -9.14375 14.21625 -8.1875 13.8125 C-3.41467699 11.09854182 -2.41579023 8.33490548 -0.8125 3.1875 C-0.544375 2.135625 -0.27625 1.08375 0 0 Z " fill="#846FCD" transform="translate(367,706)"/>
<path d="M0 0 C3.58875 -0.0928125 3.58875 -0.0928125 7.25 -0.1875 C8.37003418 -0.22846802 8.37003418 -0.22846802 9.51269531 -0.27026367 C12.72890947 -0.31048797 14.71220619 -0.17511982 17.484375 1.51171875 C17.98453125 2.00285156 18.4846875 2.49398437 19 3 C18.67 3.99 18.34 4.98 18 6 C17.46890625 5.35546875 16.9378125 4.7109375 16.390625 4.046875 C13.39521524 1.48217775 11.64317797 1.41926861 7.75 1.25 C6.67234375 1.19328125 5.5946875 1.1365625 4.484375 1.078125 C3.25460937 1.03945313 3.25460937 1.03945313 2 1 C2.66 1.66 3.32 2.32 4 3 C4.27629475 6.68024605 4.0859315 10.30494557 4 14 C9.445 13.505 9.445 13.505 15 13 C14 15 14 15 13 16 C13.66 17.65 14.32 19.3 15 21 C15.33 20.34 15.66 19.68 16 19 C20 24.75 20 24.75 20 27 C17.75 26.9375 17.75 26.9375 15 26 C14.03963645 24.20732137 13.08172976 22.4125655 12.1796875 20.58984375 C10.93620867 18.56266074 10.93620867 18.56266074 7.25 18.0625 C6.1775 18.041875 5.105 18.02125 4 18 C4 20.97 4 23.94 4 27 C2.68 27 1.36 27 0 27 C0 18.09 0 9.18 0 0 Z " fill="#6F7699" transform="translate(773,625)"/>
<path d="M0 0 C0.66 0 1.32 0 2 0 C2.16821105 2.5832412 2.33462517 5.16657699 2.5 7.75 C2.54769531 8.47960937 2.59539063 9.20921875 2.64453125 9.9609375 C2.85816897 13.31810164 3 16.63436276 3 20 C2.34 20 1.68 20 1 20 C0.67 20.99 0.34 21.98 0 23 C-0.7734375 24.0209375 -0.7734375 24.0209375 -1.5625 25.0625 C-3.19861564 26.86561061 -3.19861564 26.86561061 -3 29 C-7.85963179 28.39254603 -11.7405518 26.27241033 -16 24 C-15.1028125 23.55914062 -15.1028125 23.55914062 -14.1875 23.109375 C-8.66526298 20.30881194 -4.80921566 17.61843132 -2 12 C-1.10522073 8.024333 -0.49722131 4.04319432 0 0 Z " fill="#7965C2" transform="translate(697,264)"/>
<path d="M0 0 C1.32 0 2.64 0 4 0 C4 7.59 4 15.18 4 23 C7.96 23 11.92 23 16 23 C16 24.32 16 25.64 16 27 C10.72 27 5.44 27 0 27 C0 18.09 0 9.18 0 0 Z " fill="#6F7598" transform="translate(644,625)"/>
<path d="M0 0 C4.8274799 1.41292095 8.7162359 3.42974154 13 6 C13 6.66 13 7.32 13 8 C14.32 8.66 15.64 9.32 17 10 C16.67 10.66 16.34 11.32 16 12 C15.34 11.67 14.68 11.34 14 11 C13.34 12.65 12.68 14.3 12 16 C4.67889378 14.83791965 -0.09297127 12.440745 -6 8 C-5.34 7.67 -4.68 7.34 -4 7 C-3.01 7.33 -2.02 7.66 -1 8 C-1 7.01 -1 6.02 -1 5 C-0.01 4.34 0.98 3.68 2 3 C1.34 2.01 0.68 1.02 0 0 Z " fill="#564A95" transform="translate(456,345)"/>
<path d="M0 0 C4.8274799 1.41292095 8.7162359 3.42974154 13 6 C13 6.66 13 7.32 13 8 C15.31 9.32 17.62 10.64 20 12 C19.38125 12.20625 18.7625 12.4125 18.125 12.625 C15.15346355 14.54775888 14.86975341 16.66594527 14 20 C13.67 19.34 13.34 18.68 13 18 C12.11054688 17.70351563 11.22109375 17.40703125 10.3046875 17.1015625 C6.81258001 15.93752667 4.19190697 14.39467044 1.125 12.375 C0.15820312 11.74335938 -0.80859375 11.11171875 -1.8046875 10.4609375 C-2.52914063 9.97882813 -3.25359375 9.49671875 -4 9 C-3.34 8.67 -2.68 8.34 -2 8 C0.625 9.4375 0.625 9.4375 3 11 C3.185625 10.0409375 3.185625 10.0409375 3.375 9.0625 C3.58125 8.381875 3.7875 7.70125 4 7 C4.66 6.67 5.32 6.34 6 6 C5.3503125 5.3503125 5.3503125 5.3503125 4.6875 4.6875 C3.125 3.125 1.5625 1.5625 0 0 Z " fill="#725EBE" transform="translate(489,364)"/>
<path d="M0 0 C4.8274799 1.41292095 8.7162359 3.42974154 13 6 C13 6.66 13 7.32 13 8 C17.455 10.475 17.455 10.475 22 13 C21.34 14.32 20.68 15.64 20 17 C19.34 17 18.68 17 18 17 C18 17.66 18 18.32 18 19 C10.00757878 17.82079031 4.57938733 14.59942217 -2 10 C-1.34 9.67 -0.68 9.34 0 9 C2.125 9.9375 2.125 9.9375 4 11 C4.6496875 10.2884375 4.6496875 10.2884375 5.3125 9.5625 C7 8 7 8 10 7 C9.04287109 6.49339844 9.04287109 6.49339844 8.06640625 5.9765625 C7.24011719 5.53054688 6.41382813 5.08453125 5.5625 4.625 C4.73878906 4.18414062 3.91507812 3.74328125 3.06640625 3.2890625 C1 2 1 2 0 0 Z " fill="#312E58" transform="translate(381,302)"/>
<path d="M0 0 C1.65 0.33 3.3 0.66 5 1 C5.33 1.99 5.66 2.98 6 4 C5.67 4.66 5.34 5.32 5 6 C11.3079086 8.84371005 11.3079086 8.84371005 18 10 C18.66 8.02 19.32 6.04 20 4 C23.45925163 5.2491742 26.14693203 6.67527795 29 9 C28.34 9.66 27.68 10.32 27 11 C27.32326553 14.59679066 27.32326553 14.59679066 28 18 C20.26977894 15.87797853 14.02985146 12.97008713 7.1875 8.875 C6.39923828 8.40707031 5.61097656 7.93914062 4.79882812 7.45703125 C2.86397546 6.30784603 0.93112772 5.15542997 -1 4 C-0.67 2.68 -0.34 1.36 0 0 Z " fill="#22223F" transform="translate(346,289)"/>
<path d="M0 0 C0.66 0.33 1.32 0.66 2 1 C2 1.99 2 2.98 2 4 C1.1028125 4.86625 1.1028125 4.86625 0.1875 5.75 C-2.61233219 8.62982739 -3.56427771 11.26712205 -5 15 C-4.34 15.33 -3.68 15.66 -3 16 C-3.66 16 -4.32 16 -5 16 C-4.67 17.98 -4.34 19.96 -4 22 C-3.34 22 -2.68 22 -2 22 C-2.33 23.98 -2.66 25.96 -3 28 C-1.35 28.33 0.3 28.66 2 29 C3 32 3 32 3 34 C4.29233607 35.37310707 5.62437146 36.71034824 7 38 C2.10208678 36.60059622 0.06579349 33.95326003 -3 30 C-3.556875 29.505 -4.11375 29.01 -4.6875 28.5 C-8.54916973 24.08666316 -8.37091875 18.2461115 -8.25 12.69140625 C-7.88499838 8.76193564 -7.0496664 6.39255129 -5 3 C-2.4375 1 -2.4375 1 0 0 Z " fill="#6854B9" transform="translate(469,532)"/>
<path d="M0 0 C3.53844071 3.78530867 6.0716572 7.93100337 7.6875 12.875 C7.31640625 15.18359375 7.31640625 15.18359375 6.6875 16.875 C6.31625 15.92625 5.945 14.9775 5.5625 14 C3.94754095 10.61946192 3.94754095 10.61946192 0.5 9.5 C-0.428125 9.29375 -1.35625 9.0875 -2.3125 8.875 C-1.9825 6.565 -1.6525 4.255 -1.3125 1.875 C-5.35391194 1.24105303 -9.2190307 0.75095548 -13.3125 0.875 C-13.3125 -0.115 -13.3125 -1.105 -13.3125 -2.125 C-14.6325 -2.125 -15.9525 -2.125 -17.3125 -2.125 C-18.99948082 -2.73844757 -20.67215807 -3.39595914 -22.3125 -4.125 C-22.3125 -4.455 -22.3125 -4.785 -22.3125 -5.125 C-13.34636365 -6.86038123 -7.61300281 -4.88381312 0 0 Z " fill="#1E1A3F" transform="translate(511.3125,394.125)"/>
<path d="M0 0 C12.06037996 -0.57028066 12.06037996 -0.57028066 16 3 C19.12916259 6.68794162 19.98543363 10.81545677 20.296875 15.55078125 C19.9487606 18.42272508 19.36819079 19.54793733 17.375 21.625 C12.14298103 25.41848015 6.16203646 24.38115689 0 24 C0 17.07 0 10.14 0 3 C0.33 3 0.66 3 1 3 C1 9.6 1 16.2 1 23 C4.3 23 7.6 23 11 23 C11 22.34 11 21.68 11 21 C11.66 20.505 12.32 20.01 13 19.5 C15.71840859 16.10198927 15.4399639 13.57599239 15.43359375 9.33984375 C14.91242155 6.52739194 14.32985084 5.63452787 12 4 C9.82887713 3.46223225 9.82887713 3.46223225 7.5 3.375 C4.69797885 3.17885852 2.70125455 2.90041818 0 2 C0 1.34 0 0.68 0 0 Z " fill="#5C6280" transform="translate(468,626)"/>
<path d="M0 0 C20.79129517 -0.95178869 20.79129517 -0.95178869 28 5 C28.62108643 5.48275391 29.24217285 5.96550781 29.88208008 6.46289062 C33.86721629 10.16067053 35.39191632 13.17445744 35.66275024 18.67431641 C35.69851306 22.28934575 35.58454633 25.8884471 35.4375 29.5 C35.40233479 31.00513561 35.37040494 32.51035048 35.34179688 34.015625 C35.26519428 37.67874806 35.14470277 41.33886095 35 45 C34.67 45 34.34 45 34 45 C34.01160156 44.09757568 34.02320313 43.19515137 34.03515625 42.26538086 C34.05944983 38.88878972 34.04771116 35.51618432 34.01220703 32.13989258 C34.00413852 30.68417263 34.01007772 29.22830043 34.03076172 27.77270508 C34.32510025 19.27947232 34.32510025 19.27947232 31.3984375 11.54736328 C29.36243302 9.67987944 27.41752068 8.32861833 25 7 C23.87464844 6.37480469 22.74929688 5.74960937 21.58984375 5.10546875 C17.18558614 3.74920661 13.14585277 3.44176458 8.5625 3.3125 C7.73556641 3.27833984 6.90863281 3.24417969 6.05664062 3.20898438 C4.03821056 3.12731379 2.01913116 3.06196276 0 3 C0 2.01 0 1.02 0 0 Z " fill="#7661CC" transform="translate(388,497)"/>
<path d="M0 0 C16.83 0 33.66 0 51 0 C51.495 3.465 51.495 3.465 52 7 C51.34 6.34 50.68 5.68 50 5 C50 4.01 50 3.02 50 2 C33.83 2.33 17.66 2.66 1 3 C0.01 5.64 -0.98 8.28 -2 11 C-3 7 -3 7 0 0 Z " fill="#020304" transform="translate(262,543)"/>
<path d="M0 0 C5.61 0 11.22 0 17 0 C16.67 0.99 16.34 1.98 16 3 C14.06280622 3.05406122 12.12518079 3.09282025 10.1875 3.125 C9.10855469 3.14820313 8.02960937 3.17140625 6.91796875 3.1953125 C4 3 4 3 1 1 C1 8.92 1 16.84 1 25 C1.66 24.67 2.32 24.34 3 24 C2.67 23.34 2.34 22.68 2 22 C1.95977609 19.6670134 1.95679753 17.33293334 2 15 C2.66 15.33 3.32 15.66 4 16 C4 18.31 4 20.62 4 23 C8.29 23 12.58 23 17 23 C17 24.32 17 25.64 17 27 C11.39 27 5.78 27 0 27 C0 18.09 0 9.18 0 0 Z " fill="#787EA4" transform="translate(743,625)"/>
<path d="M0 0 C0.33 0 0.66 0 1 0 C1.33 21.45 1.66 42.9 2 65 C-4.27 65 -10.54 65 -17 65 C-17 62.69 -17 60.38 -17 58 C-15.35 58 -13.7 58 -12 58 C-11.34 59.65 -10.68 61.3 -10 63 C-6.7 63.33 -3.4 63.66 0 64 C0 42.88 0 21.76 0 0 Z " fill="#5F4EA6" transform="translate(541,506)"/>
<path d="M0 0 C1.60875 -0.04125 3.2175 -0.0825 4.875 -0.125 C5.77992188 -0.14820313 6.68484375 -0.17140625 7.6171875 -0.1953125 C10 0 10 0 12 2 C11.75 5.5625 11.75 5.5625 11 9 C7.57067929 10.71466036 3.78283935 10.05404056 0 10 C0 6.7 0 3.4 0 0 Z " fill="#090B0E" transform="translate(777,629)"/>
<path d="M0 0 C1.60875 -0.04125 3.2175 -0.0825 4.875 -0.125 C5.77992188 -0.14820313 6.68484375 -0.17140625 7.6171875 -0.1953125 C10 0 10 0 12 2 C12.35928679 4.80243693 12.48891217 6.34292696 10.7734375 8.6484375 C8.47822234 10.39765434 7.16269248 10.31142141 4.3125 10.1875 C2.889375 10.125625 1.46625 10.06375 0 10 C0 6.7 0 3.4 0 0 Z " fill="#0C0F14" transform="translate(261,629)"/>
<path d="M0 0 C2.90511456 1.30229274 5.08136682 2.4314909 7 5 C7.40405273 8.13867188 7.40405273 8.13867188 7.43359375 11.96875 C7.4388356 12.64546753 7.44407745 13.32218506 7.44947815 14.01940918 C7.45589358 15.44830962 7.45456744 16.87726291 7.44604492 18.30615234 C7.43752798 20.49281708 7.46630633 22.67687426 7.49804688 24.86328125 C7.49965887 26.25260338 7.49908138 27.64193014 7.49609375 29.03125 C7.49794678 30.29517578 7.4997998 31.55910156 7.50170898 32.86132812 C7 36 7 36 4.96899414 37.93554688 C4.31922607 38.28681641 3.66945801 38.63808594 3 39 C3.02356567 37.44104004 3.02356567 37.44104004 3.04760742 35.85058594 C3.10196842 31.9891741 3.13637233 28.127796 3.16479492 24.26611328 C3.17986754 22.59580799 3.2003292 20.92554219 3.22631836 19.25537109 C3.26276973 16.85243987 3.27974131 14.45003256 3.29296875 12.046875 C3.30845261 11.30193787 3.32393646 10.55700073 3.33988953 9.78948975 C3.34125473 5.56947844 3.02302019 3.05440102 0 0 Z " fill="#11101D" transform="translate(415,506)"/>
<path d="M0 0 C7.23186925 -0.49029622 7.23186925 -0.49029622 10.9375 1.875 C14.24223107 5.27987444 14.11320051 7.28995304 14.0625 11.9375 C14.05347656 12.99839844 14.04445313 14.05929687 14.03515625 15.15234375 C14.02355469 16.09207031 14.01195312 17.03179688 14 18 C14 18.99 14 19.98 14 21 C12.25 23.1875 12.25 23.1875 9 25 C4.97783297 25.33997511 1.02645975 25.23118429 -3 25 C-3 24.34 -3 23.68 -3 23 C0.96 22.67 4.92 22.34 9 22 C5.37 22 1.74 22 -2 22 C-2 15.4 -2 8.8 -2 2 C-1.67 2 -1.34 2 -1 2 C-1 8.27 -1 14.54 -1 21 C7.63559456 20.98910049 7.63559456 20.98910049 11 17 C12.6143926 13.77121481 12.5818272 10.49096318 12 7 C9.31119897 3.1704955 7.77990511 2.16620928 3.1875 1.1875 C2.135625 1.125625 1.08375 1.06375 0 1 C0 0.67 0 0.34 0 0 Z " fill="#747BA0" transform="translate(521,627)"/>
<path d="M0 0 C-0.33 0.66 -0.66 1.32 -1 2 C-3.64 2 -6.28 2 -9 2 C-9.33 2.99 -9.66 3.98 -10 5 C-11.32 4.67 -12.64 4.34 -14 4 C-13.814375 5.134375 -13.62875 6.26875 -13.4375 7.4375 C-13.293125 8.613125 -13.14875 9.78875 -13 11 C-13.33 11.33 -13.66 11.66 -14 12 C-14.04063832 13.66617115 -14.042721 15.33388095 -14 17 C-13.07058594 16.71125 -12.14117187 16.4225 -11.18359375 16.125 C-9.94738281 15.75375 -8.71117187 15.3825 -7.4375 15 C-6.21933594 14.62875 -5.00117188 14.2575 -3.74609375 13.875 C-0.02076651 13.00485057 3.19065949 12.84311596 7 13 C7 13.33 7 13.66 7 14 C5.72125 14.309375 4.4425 14.61875 3.125 14.9375 C0.89898325 15.47605244 -0.94739999 15.9737 -3 17 C-3.9075 17.12375 -4.815 17.2475 -5.75 17.375 C-9.2560388 18.04923823 -11.85208473 19.35449884 -15 21 C-15.66 21 -16.32 21 -17 21 C-17 15.39 -17 9.78 -17 4 C-4.85625 -1.61875 -4.85625 -1.61875 0 0 Z M-5 2 C-3 3 -3 3 -3 3 Z " fill="#624FAE" transform="translate(488,484)"/>
<path d="M0 0 C2.0625 0.4375 2.0625 0.4375 4 1 C2.522609 4.95899837 1.04278759 8.91708386 -0.4375 12.875 C-0.85837891 14.00292969 -1.27925781 15.13085938 -1.71289062 16.29296875 C-2.11572266 17.36933594 -2.51855469 18.44570313 -2.93359375 19.5546875 C-3.30540771 20.54968262 -3.67722168 21.54467773 -4.06030273 22.56982422 C-5 25 -5 25 -6 27 C-7.65 26.67 -9.3 26.34 -11 26 C-10.67 25.34 -10.34 24.68 -10 24 C-9.01 24 -8.02 24 -7 24 C-7.06058594 23.01773438 -7.12117187 22.03546875 -7.18359375 21.0234375 C-7.18245248 16.49260299 -5.7360277 12.78392695 -4.0625 8.625 C-3.78470703 7.90183594 -3.50691406 7.17867187 -3.22070312 6.43359375 C-1.17254704 1.17254704 -1.17254704 1.17254704 0 0 Z " fill="#6C7397" transform="translate(599,625)"/>
<path d="M0 0 C1.62463842 -0.05395478 3.24978541 -0.09277195 4.875 -0.125 C5.77992188 -0.14820313 6.68484375 -0.17140625 7.6171875 -0.1953125 C10 0 10 0 12 2 C12.25 4.5 12.25 4.5 12 7 C10 9 10 9 7.6171875 9.1953125 C6.71226562 9.17210937 5.80734375 9.14890625 4.875 9.125 C3.50988281 9.09792969 3.50988281 9.09792969 2.1171875 9.0703125 C1.41851563 9.04710937 0.71984375 9.02390625 0 9 C0 6.03 0 3.06 0 0 Z " fill="#090A0E" transform="translate(714,629)"/>
<path d="M0 0 C6.93 0 13.86 0 21 0 C21 1.65 21 3.3 21 5 C20.01 5.495 20.01 5.495 19 6 C19 4.68 19 3.36 19 2 C18.19175781 2.09539062 17.38351562 2.19078125 16.55078125 2.2890625 C14.94783203 2.45535156 14.94783203 2.45535156 13.3125 2.625 C11.72888672 2.79902344 11.72888672 2.79902344 10.11328125 2.9765625 C6.86283654 3.0010326 4.89769204 2.40852563 2 1 C2.14168137 2.43791516 2.28851043 3.8753237 2.4375 5.3125 C2.51871094 6.11300781 2.59992187 6.91351563 2.68359375 7.73828125 C2.95265693 10.16087179 2.95265693 10.16087179 4 13 C3.67 13.99 3.34 14.98 3 16 C3.66 16.33 4.32 16.66 5 17 C4.34 17.33 3.68 17.66 3 18 C2.26924352 20.3140622 1.59861742 22.64828869 1 25 C0.67 25 0.34 25 0 25 C0 16.75 0 8.5 0 0 Z " fill="#6251AE" transform="translate(717,448)"/>
<path d="M0 0 C5.28 0 10.56 0 16 0 C16 0.33 16 0.66 16 1 C11.05 1 6.1 1 1 1 C1 8.92 1 16.84 1 25 C2.23267348 23.99163938 2.23267348 23.99163938 2.09765625 21.93359375 C2.08605469 21.10988281 2.07445312 20.28617188 2.0625 19.4375 C2.04896484 18.19806641 2.04896484 18.19806641 2.03515625 16.93359375 C2.02355469 16.29550781 2.01195312 15.65742187 2 15 C2.33 15 2.66 15 3 15 C3 17.64 3 20.28 3 23 C7.62 23 12.24 23 17 23 C17 24.32 17 25.64 17 27 C11.39 27 5.78 27 0 27 C0 18.09 0 9.18 0 0 Z " fill="#7980A6" transform="translate(402,625)"/>
<path d="M0 0 C1.60089034 2.82845052 2.25424652 4.81619207 2.1875 8.0625 C2.17589844 8.84109375 2.16429687 9.6196875 2.15234375 10.421875 C1.98559746 13.24373532 1.6134668 16.00968382 1.25 18.8125 C0.69977212 22.98410764 0.69977212 22.98410764 2.9375 26.4375 C3.618125 26.953125 4.29875 27.46875 5 28 C5 29.32 5 30.64 5 32 C9.95 32.33 14.9 32.66 20 33 C20 33.33 20 33.66 20 34 C13.07 34 6.14 34 -1 34 C-1.08905302 22.60121313 -0.86698245 11.36366286 0 0 Z " fill="#6251AD" transform="translate(718,537)"/>
<path d="M0 0 C0.98197481 4.80313765 1.52594376 7.92863309 -0.6875 12.4375 C-3.53464966 15.59244962 -5.44315389 16.78249944 -9.65625 17.37109375 C-17.40651904 17.55207531 -17.40651904 17.55207531 -20.6875 14.5 C-21.120625 13.675 -21.55375 12.85 -22 12 C-21.67 11.34 -21.34 10.68 -21 10 C-20.319375 10.639375 -19.63875 11.27875 -18.9375 11.9375 C-15.53591161 14.3258493 -13.09566299 14.67877153 -9 15 C-9 14.34 -9 13.68 -9 13 C-8.195625 12.278125 -7.39125 11.55625 -6.5625 10.8125 C-3.50412709 7.45574924 -3.4249901 5.41989707 -3 1 C-1 0 -1 0 0 0 Z " fill="#646B8C" transform="translate(312,635)"/>
<path d="M0 0 C0.99 0.33 1.98 0.66 3 1 C3 1.66 3 2.32 3 3 C5.64 3.66 8.28 4.32 11 5 C9.1875 6.5625 9.1875 6.5625 7 8 C6.01 7.67 5.02 7.34 4 7 C3.67 9.97 3.34 12.94 3 16 C6.63 17.32 10.26 18.64 14 20 C14 20.33 14 20.66 14 21 C12.56344146 21.08131463 11.1255517 21.13933559 9.6875 21.1875 C8.48673828 21.23970703 8.48673828 21.23970703 7.26171875 21.29296875 C4.48477122 20.93326052 3.78615306 20.07948025 2 18 C1.34 17.67 0.68 17.34 0 17 C0 11.39 0 5.78 0 0 Z " fill="#5E4DA6" transform="translate(630,550)"/>
<path d="M0 0 C4.96702804 1.27063508 7.71893937 3.04342689 11 7 C11 8.66666667 11 10.33333333 11 12 C11.33 13.32 11.66 14.64 12 16 C9.03 15.01 6.06 14.02 3 13 C3 12.01 3 11.02 3 10 C1.68 9.34 0.36 8.68 -1 8 C-0.67 7.01 -0.34 6.02 0 5 C1.32 5 2.64 5 4 5 C4.11602431 3.64082319 4.11602431 3.64082319 2 1.9375 C1.34 1.298125 0.68 0.65875 0 0 Z " fill="#3D386C" transform="translate(407,317)"/>
<path d="M0 0 C0.66 1.32 1.32 2.64 2 4 C-2.15777262 10.83062645 -2.15777262 10.83062645 -6 12 C-8.359375 11.1015625 -8.359375 11.1015625 -10.75 9.625 C-11.54921875 9.14289063 -12.3484375 8.66078125 -13.171875 8.1640625 C-13.77515625 7.77992188 -14.3784375 7.39578125 -15 7 C-14.67 6.01 -14.34 5.02 -14 4 C-12.68 4.66 -11.36 5.32 -10 6 C-9.67 5.34 -9.34 4.68 -9 4 C-7.2984375 3.7834375 -7.2984375 3.7834375 -5.5625 3.5625 C-3.7990625 3.2840625 -3.7990625 3.2840625 -2 3 C-1.34 2.01 -0.68 1.02 0 0 Z " fill="#251E4F" transform="translate(517,364)"/>
<path d="M0 0 C0.33 0 0.66 0 1 0 C1.36637589 6.35051546 1.36637589 6.35051546 -0.375 9.4375 C-2 11 -2 11 -4 11 C-3.6390625 11.62648438 -3.278125 12.25296875 -2.90625 12.8984375 C-2.4421875 13.71570313 -1.978125 14.53296875 -1.5 15.375 C-1.0359375 16.18710937 -0.571875 16.99921875 -0.09375 17.8359375 C1 20 1 20 1 22 C-1.25 22.0625 -1.25 22.0625 -4 21 C-4.9765625 18.96484375 -4.9765625 18.96484375 -5.875 16.5 C-6.74005381 14.04975315 -6.74005381 14.04975315 -8 12 C-11.62176584 10.77732292 -11.62176584 10.77732292 -15 11 C-15 10.67 -15 10.34 -15 10 C-13.95199219 9.92652344 -13.95199219 9.92652344 -12.8828125 9.8515625 C-11.97273438 9.77679687 -11.06265625 9.70203125 -10.125 9.625 C-9.22007812 9.55539062 -8.31515625 9.48578125 -7.3828125 9.4140625 C-4.82058097 9.20431868 -4.82058097 9.20431868 -3 7 C-2.35232207 4.42938689 -2.35232207 4.42938689 -2 2 C-1.34 2 -0.68 2 0 2 C0 1.34 0 0.68 0 0 Z " fill="#5F6583" transform="translate(276,630)"/>
<path d="M0 0 C2.23828125 0.15234375 2.23828125 0.15234375 5 1 C7.16796875 3.50390625 7.16796875 3.50390625 9.1875 6.5625 C10.41486136 8.40471543 11.67603224 10.22594166 13 12 C13.66 12 14.32 12 15 12 C15.06058594 11.21753906 15.12117188 10.43507813 15.18359375 9.62890625 C15.26738281 8.61699219 15.35117187 7.60507812 15.4375 6.5625 C15.51871094 5.55316406 15.59992188 4.54382813 15.68359375 3.50390625 C16 1 16 1 17 0 C18.66617115 -0.04063832 20.33388095 -0.042721 22 0 C20.68 0.33 19.36 0.66 18 1 C18 7.6 18 14.2 18 21 C12.38490042 15.38490042 12.38490042 15.38490042 10.4296875 12.51953125 C9.79740234 11.60977539 9.79740234 11.60977539 9.15234375 10.68164062 C8.29283519 9.42391939 7.43346263 8.1661052 6.57421875 6.90820312 C4.53750769 3.97847261 3.00334942 2.00223295 0 0 Z " fill="#060709" transform="translate(325,623)"/>
<path d="M0 0 C0.5625 1.9375 0.5625 1.9375 1 4 C0 5 0 5 -2.50390625 5.09765625 C-4.01791016 5.08025391 -4.01791016 5.08025391 -5.5625 5.0625 C-6.57441406 5.05347656 -7.58632813 5.04445313 -8.62890625 5.03515625 C-9.80259766 5.01775391 -9.80259766 5.01775391 -11 5 C-11 6.65 -11 8.3 -11 10 C-9.84371094 9.98259766 -9.84371094 9.98259766 -8.6640625 9.96484375 C-7.66117188 9.95582031 -6.65828125 9.94679688 -5.625 9.9375 C-4.62726562 9.92589844 -3.62953125 9.91429687 -2.6015625 9.90234375 C0 10 0 10 2 11 C2.042721 12.66611905 2.04063832 14.33382885 2 16 C1 17 1 17 -0.76586914 17.11352539 C-1.51473389 17.10828857 -2.26359863 17.10305176 -3.03515625 17.09765625 C-3.84404297 17.09443359 -4.65292969 17.09121094 -5.48632812 17.08789062 C-6.33646484 17.07951172 -7.18660156 17.07113281 -8.0625 17.0625 C-8.91650391 17.05798828 -9.77050781 17.05347656 -10.65039062 17.04882812 C-12.76695663 17.03700373 -14.88348685 17.01906769 -17 17 C-17 16.67 -17 16.34 -17 16 C-11.39 16 -5.78 16 0 16 C0 14.68 0 13.36 0 12 C-4.29 12 -8.58 12 -13 12 C-13 9.36 -13 6.72 -13 4 C-9.04 4 -5.08 4 -1 4 C-0.67 2.68 -0.34 1.36 0 0 Z " fill="#030406" transform="translate(631,636)"/>
<path d="M0 0 C0.625 1.875 0.625 1.875 1 4 C0.34 4.66 -0.32 5.32 -1 6 C-1.31807569 10.85065422 -1.4883189 14.67818296 1 19 C3.62366283 20.03770677 3.62366283 20.03770677 6.625 20.3125 C7.62789062 20.45300781 8.63078125 20.59351563 9.6640625 20.73828125 C10.43492187 20.82464844 11.20578125 20.91101563 12 21 C12 21.33 12 21.66 12 22 C4.08066467 23.58731776 4.08066467 23.58731776 0.125 21.4375 C-3.25386256 17.56174588 -5.14085842 14.09166701 -5.5 8.9375 C-4.90459714 4.24870249 -3.62349393 2.89879515 0 0 Z " fill="#616888" transform="translate(676,629)"/>
<path d="M0 0 C4.62 0 9.24 0 14 0 C14 0.33 14 0.66 14 1 C10.04 1 6.08 1 2 1 C2.33 6.28 2.66 11.56 3 17 C3.33 17 3.66 17 4 17 C4 20.3 4 23.6 4 27 C2.68 27 1.36 27 0 27 C0 18.09 0 9.18 0 0 Z " fill="#767CA2" transform="translate(710,625)"/>
<path d="M0 0 C3.63 0 7.26 0 11 0 C10.67 0.99 10.34 1.98 10 3 C7.69 3 5.38 3 3 3 C3 9.27 3 15.54 3 22 C2.34 22.33 1.68 22.66 1 23 C7.435 22.505 7.435 22.505 14 22 C13.67 22.66 13.34 23.32 13 24 C8.71 24 4.42 24 0 24 C0 16.08 0 8.16 0 0 Z " fill="#4B5069" transform="translate(518,626)"/>
<path d="M0 0 C0.33 0 0.66 0 1 0 C1.08636719 0.67546875 1.17273438 1.3509375 1.26171875 2.046875 C1.93173624 6.30056399 2.41735011 9.26311926 5.125 12.6875 C9.04068725 14.47509635 11.91970293 14.21723148 16 13 C18.30504044 11.66846734 18.30504044 11.66846734 20 10 C20.99 9.34 21.98 8.68 23 8 C22.78931408 11.68700366 21.9954447 13.00512471 19.5 15.8125 C15.63327614 18.83043081 11.69241308 18.46924131 7 18 C7 17.34 7 16.68 7 16 C6.401875 15.773125 5.80375 15.54625 5.1875 15.3125 C2.23261503 13.53956902 1.35500137 12.18425322 0 9 C-0.23803601 5.98150076 -0.17767861 3.02053633 0 0 Z " fill="#7880A6" transform="translate(674,634)"/>
<path d="M0 0 C4.2295083 1.4098361 5.08210924 4.16421847 7 8 C5.576875 8.12375 5.576875 8.12375 4.125 8.25 C0.89538209 8.65074923 0.89538209 8.65074923 -0.375 11.0625 C-0.58125 11.701875 -0.7875 12.34125 -1 13 C-1.5775 12.690625 -2.155 12.38125 -2.75 12.0625 C-4.84294184 11.07416636 -6.74535275 10.4831387 -9 10 C-9 9.34 -9 8.68 -9 8 C-7.6078125 7.4121875 -7.6078125 7.4121875 -6.1875 6.8125 C-2.77449882 4.87177384 -1.68801596 3.46981059 0 0 Z " fill="#6C59AE" transform="translate(365,713)"/>
<path d="M0 0 C10.395 0.99 10.395 0.99 21 2 C21 2.33 21 2.66 21 3 C26.61 3 32.22 3 38 3 C33.05101634 5.47449183 29.43322393 5.34390042 24 5.3125 C23.06188477 5.30976074 22.12376953 5.30702148 21.15722656 5.30419922 C14.22627289 5.20012725 7.45815504 4.77141299 1 2 C0.67 1.34 0.34 0.68 0 0 Z " fill="#7964CD" transform="translate(637,570)"/>
<path d="M0 0 C3.34998521 1.11666174 3.79340222 1.74694925 5.6875 4.5625 C6.12449219 5.20316406 6.56148438 5.84382812 7.01171875 6.50390625 C7.33785156 6.99761719 7.66398437 7.49132812 8 8 C7.67 8.66 7.34 9.32 7 10 C6.34 8.68 5.68 7.36 5 6 C4.01 6.495 4.01 6.495 3 7 C2.67 13.27 2.34 19.54 2 26 C1.34 26 0.68 26 0 26 C0 17.42 0 8.84 0 0 Z " fill="#666C8B" transform="translate(326,626)"/>
<path d="M0 0 C2.92586433 1.46293216 3.05946588 3.40270098 4.125 6.4375 C4.47820312 7.42621094 4.83140625 8.41492188 5.1953125 9.43359375 C6 12 6 12 6 14 C-2.25 14 -10.5 14 -19 14 C-19 13.34 -19 12.68 -19 12 C-11.41 12 -3.82 12 4 12 C2.68 9.03 1.36 6.06 0 3 C0 2.01 0 1.02 0 0 Z " fill="#705DC5" transform="translate(342,559)"/>
<path d="M0 0 C3.5948734 0.57517974 6.24017504 2.25223293 9.31640625 4.078125 C11.17268969 5.09455862 12.90979872 5.66556779 15 6 C15 6.66 15 7.32 15 8 C15.99 8 16.98 8 18 8 C18 8.66 18 9.32 18 10 C19.32 10.33 20.64 10.66 22 11 C22.33 12.32 22.66 13.64 23 15 C14.77507216 11.01878493 6.83780141 6.69712212 -1 2 C-0.67 1.34 -0.34 0.68 0 0 Z " fill="#181436" transform="translate(478,355)"/>
<path d="M0 0 C4.61513112 1.31860889 8.09897612 3.21355437 12 6 C11.01 6.495 11.01 6.495 10 7 C9.01 6.67 8.02 6.34 7 6 C7.33 6.99 7.66 7.98 8 9 C6.5625 11.1875 6.5625 11.1875 5 13 C5.66 13.33 6.32 13.66 7 14 C2.48521602 13.46884894 -0.34666857 11.63379708 -4 9 C-3.34 8.67 -2.68 8.34 -2 8 C0.125 8.9375 0.125 8.9375 2 10 C2.76522801 6.64541845 2.76522801 6.64541845 3 3 C1.70735301 1.03568595 1.70735301 1.03568595 0 0 Z " fill="#544992" transform="translate(442,337)"/>
<path d="M0 0 C0 0.99 0 1.98 0 3 C-0.7425 3.7425 -1.485 4.485 -2.25 5.25 C-6.70617301 10.20130335 -7.55752017 17.66598243 -9 24 C-9.33 24 -9.66 24 -10 24 C-11.55834384 16.83500604 -10.48046674 12.3808557 -7 6 C-6.67 5.34 -6.34 4.68 -6 4 C-4.35178756 2.96986723 -2.68496298 1.96885372 -1 1 C-0.67 0.67 -0.34 0.34 0 0 Z " fill="#1C1935" transform="translate(536,394)"/>
<path d="M0 0 C3.48909302 3.17517218 4.64711394 6.59181132 6.25 10.9375 C6.53101563 11.65357422 6.81203125 12.36964844 7.1015625 13.10742188 C8.50532292 16.85657408 9.23198616 19.18411833 8 23 C7.34 20.69 6.68 18.38 6 16 C5.34 16 4.68 16 4 16 C3.71125 15.21625 3.4225 14.4325 3.125 13.625 C2.15087746 10.90328368 2.15087746 10.90328368 0 9 C-1.15392455 6.6921509 -1.53437166 4.52769669 -2 2 C-1.34 2 -0.68 2 0 2 C0 1.34 0 0.68 0 0 Z " fill="#6F5CC3" transform="translate(310,474)"/>
<path d="M0 0 C4.8274799 1.41292095 8.7162359 3.42974154 13 6 C13 6.99 13 7.98 13 9 C12.360625 9.268125 11.72125 9.53625 11.0625 9.8125 C8.66868314 10.88667752 8.66868314 10.88667752 8 14 C5.525 13.01 5.525 13.01 3 12 C3.375 9.5625 3.375 9.5625 4 7 C4.66 6.67 5.32 6.34 6 6 C5.566875 5.566875 5.13375 5.13375 4.6875 4.6875 C3.125 3.125 1.5625 1.5625 0 0 Z " fill="#6856B1" transform="translate(489,364)"/>
<path d="M0 0 C0.33 0.66 0.66 1.32 1 2 C0.34 2 -0.32 2 -1 2 C-1 3.98 -1 5.96 -1 8 C-2.75 8.75 -2.75 8.75 -5 9 C-7.3125 7.375 -7.3125 7.375 -9 5 C-8.875 2.3125 -8.875 2.3125 -8 0 C-5.09660535 -1.45169732 -3.09125158 -0.72348441 0 0 Z " fill="#574B99" transform="translate(480,359)"/>
<path d="M0 0 C1.23556641 0.01740234 1.23556641 0.01740234 2.49609375 0.03515625 C3.32238281 0.04417969 4.14867187 0.05320312 5 0.0625 C5.63808594 0.07410156 6.27617187 0.08570313 6.93359375 0.09765625 C6.93359375 0.42765625 6.93359375 0.75765625 6.93359375 1.09765625 C4.62359375 1.09765625 2.31359375 1.09765625 -0.06640625 1.09765625 C-0.06640625 7.69765625 -0.06640625 14.29765625 -0.06640625 21.09765625 C2.57359375 21.09765625 5.21359375 21.09765625 7.93359375 21.09765625 C7.93359375 21.42765625 7.93359375 21.75765625 7.93359375 22.09765625 C4.63359375 22.09765625 1.33359375 22.09765625 -2.06640625 22.09765625 C-2.26017663 18.61873271 -2.44672001 15.1396886 -2.62890625 11.66015625 C-2.68498047 10.66693359 -2.74105469 9.67371094 -2.79882812 8.65039062 C-2.84716797 7.70615234 -2.89550781 6.76191406 -2.9453125 5.7890625 C-2.99244385 4.91451416 -3.0395752 4.03996582 -3.08813477 3.13891602 C-3.05835273 0.34107815 -2.78680004 0.13170133 0 0 Z " fill="#6F7699" transform="translate(471.06640625,626.90234375)"/>
<path d="M0 0 C1.65 0 3.3 0 5 0 C5 0.66 5 1.32 5 2 C5.66 2 6.32 2 7 2 C7.08728882 5.24983 7.14048658 8.4993575 7.1875 11.75 C7.22520508 13.13058594 7.22520508 13.13058594 7.26367188 14.5390625 C7.27333984 15.42851563 7.28300781 16.31796875 7.29296875 17.234375 C7.3086792 18.05131836 7.32438965 18.86826172 7.34057617 19.70996094 C7 22 7 22 4 26 C4 18.41 4 10.82 4 3 C2.68 3 1.36 3 0 3 C0 2.01 0 1.02 0 0 Z " fill="#13161D" transform="translate(644,622)"/>
<path d="M0 0 C2.248125 1.11375 4.49625 2.2275 6.8125 3.375 C7.51608643 3.72224121 8.21967285 4.06948242 8.94458008 4.42724609 C11.75542397 5.82641095 14.38369463 7.25579642 17 9 C12.33333333 8.33333333 7.66666667 7.66666667 3 7 C3 6.01 3 5.02 3 4 C2.34 3.67 1.68 3.34 1 3 C1 8.61 1 14.22 1 20 C2.98 20.66 4.96 21.32 7 22 C6.01 22.33 5.02 22.66 4 23 C2.68 22.34 1.36 21.68 0 21 C0 14.07 0 7.14 0 0 Z " fill="#7E66E1" transform="translate(629,547)"/>
<path d="M0 0 C0.99 0 1.98 0 3 0 C2.34 3.96 1.68 7.92 1 12 C0.67 12 0.34 12 0 12 C0 18.93 0 25.86 0 33 C-1.88059835 29.2388033 -2.25518067 28.00696312 -2.265625 24.04296875 C-2.26820313 23.09486328 -2.27078125 22.14675781 -2.2734375 21.16992188 C-2.26570313 20.18572266 -2.25796875 19.20152344 -2.25 18.1875 C-2.25773437 17.21490234 -2.26546875 16.24230469 -2.2734375 15.24023438 C-2.25861579 9.76731682 -1.81721518 5.17040985 0 0 Z " fill="#7763D1" transform="translate(353,509)"/>
<path d="M0 0 C0.72445313 0.39832031 1.44890625 0.79664063 2.1953125 1.20703125 C7.09133453 3.89005132 11.97918814 6.55744288 17 9 C17 9.66 17 10.32 17 11 C13.62182575 11.84454356 11.32534757 12.10844919 8 11 C7.896875 10.360625 7.79375 9.72125 7.6875 9.0625 C7.460625 8.381875 7.23375 7.70125 7 7 C6.01 6.67 5.02 6.34 4 6 C4 5.34 4 4.68 4 4 C2.68 3.67 1.36 3.34 0 3 C0 2.01 0 1.02 0 0 Z " fill="#241D4E" transform="translate(485,373)"/>
<path d="M0 0 C3.63 0 7.26 0 11 0 C11 0.33 11 0.66 11 1 C6.545 1.495 6.545 1.495 2 2 C1.67 5.3 1.34 8.6 1 12 C3.97 12 6.94 12 10 12 C10 12.99 10 13.98 10 15 C7.36 15.33 4.72 15.66 2 16 C1.67 18.64 1.34 21.28 1 24 C0.67 24 0.34 24 0 24 C0 16.08 0 8.16 0 0 Z " fill="#545A74" transform="translate(712,626)"/>
<path d="M0 0 C0.66 0 1.32 0 2 0 C2 14.19 2 28.38 2 43 C1.67 43 1.34 43 1 43 C0.67 33.43 0.34 23.86 0 14 C-0.66 13.67 -1.32 13.34 -2 13 C-1.67257812 12.43796875 -1.34515625 11.8759375 -1.0078125 11.296875 C0.11785494 8.73140036 0.2068111 7.03157723 0.125 4.25 C0.10695313 3.45078125 0.08890625 2.6515625 0.0703125 1.828125 C0.04710937 1.22484375 0.02390625 0.6215625 0 0 Z " fill="#5F4DA8" transform="translate(441,448)"/>
<path d="M0 0 C3.96 0 7.92 0 12 0 C12 0.33 12 0.66 12 1 C8.7 1 5.4 1 2 1 C2 2.65 2 4.3 2 6 C2.78246094 5.98839844 3.56492187 5.97679687 4.37109375 5.96484375 C5.38300781 5.95582031 6.39492188 5.94679688 7.4375 5.9375 C8.44683594 5.92589844 9.45617187 5.91429687 10.49609375 5.90234375 C13 6 13 6 14 7 C14.04063832 8.66617115 14.042721 10.33388095 14 12 C13.67 10.68 13.34 9.36 13 8 C8.71 8 4.42 8 0 8 C0 5.36 0 2.72 0 0 Z " fill="#010203" transform="translate(747,640)"/>
<path d="M0 0 C1.65 0 3.3 0 5 0 C4.01 0.33 3.02 0.66 2 1 C2.33 2.65 2.66 4.3 3 6 C5.97 6 8.94 6 12 6 C11 9 11 9 9 10 C5.99525503 10.13559318 3.00931153 10.04299016 0 10 C0 6.7 0 3.4 0 0 Z " fill="#101117" transform="translate(777,629)"/>
<path d="M0 0 C0.66 0 1.32 0 2 0 C3.125 3.75 3.125 3.75 2 6 C2.66 6.33 3.32 6.66 4 7 C3.34 7 2.68 7 2 7 C2.26103516 8.01126953 2.26103516 8.01126953 2.52734375 9.04296875 C3.09350437 12.58498188 2.86291122 15.74094434 2.5625 19.3125 C2.46066406 20.56675781 2.35882812 21.82101562 2.25390625 23.11328125 C2.12822266 24.54220703 2.12822266 24.54220703 2 26 C0.11585358 22.80542649 -0.23819737 20.48497371 -0.1953125 16.796875 C-0.18886719 15.8171875 -0.18242188 14.8375 -0.17578125 13.828125 C-0.15902344 12.81234375 -0.14226563 11.7965625 -0.125 10.75 C-0.11597656 9.71875 -0.10695313 8.6875 -0.09765625 7.625 C-0.07412011 5.08309713 -0.04124023 2.5416672 0 0 Z " fill="#6352B1" transform="translate(717,491)"/>
<path d="M0 0 C0.66 0 1.32 0 2 0 C2.25060425 1.89311883 2.47460633 3.78977039 2.6875 5.6875 C2.81511719 6.74324219 2.94273437 7.79898437 3.07421875 8.88671875 C2.98781104 12.51129467 2.27092099 14.19902423 0 17 C-0.99 17 -1.98 17 -3 17 C-2.01 11.39 -1.02 5.78 0 0 Z " fill="#7D68C8" transform="translate(522,350)"/>
<path d="M0 0 C3.3 0 6.6 0 10 0 C10 0.99 10 1.98 10 3 C9.67 2.67 9.34 2.34 9 2 C6.67182036 1.63239269 4.3381615 1.29758419 2 1 C2 3.31 2 5.62 2 8 C6.64586892 7.51515724 6.64586892 7.51515724 11 6 C10.34 7.32 9.68 8.64 9 10 C6.03 10 3.06 10 0 10 C0 6.7 0 3.4 0 0 Z " fill="#060709" transform="translate(261,629)"/>
<path d="M0 0 C1.2065625 0.0309375 1.2065625 0.0309375 2.4375 0.0625 C1.1175 0.3925 -0.2025 0.7225 -1.5625 1.0625 C-1.5625 7.9925 -1.5625 14.9225 -1.5625 22.0625 C-4.5625 19.0625 -4.5625 19.0625 -4.82714844 17.08544922 C-4.7759082 16.35342285 -4.72466797 15.62139648 -4.671875 14.8671875 C-4.62160156 14.06925781 -4.57132812 13.27132812 -4.51953125 12.44921875 C-4.45121094 11.62035156 -4.38289063 10.79148437 -4.3125 9.9375 C-4.25964844 9.10089844 -4.20679688 8.26429688 -4.15234375 7.40234375 C-3.64265098 0.08884515 -3.64265098 0.08884515 0 0 Z " fill="#12141A" transform="translate(451.5625,622.9375)"/>
<path d="M0 0 C1.32 0.66 2.64 1.32 4 2 C4 5.66666667 4 9.33333333 4 13 C1.35541621 14.32229189 -0.67761301 14.09677194 -3.625 14.0625 C-4.62789062 14.05347656 -5.63078125 14.04445313 -6.6640625 14.03515625 C-7.43492187 14.02355469 -8.20578125 14.01195312 -9 14 C-9 13.01 -9 12.02 -9 11 C-8.28972656 10.86722656 -7.57945312 10.73445312 -6.84765625 10.59765625 C-5.92855469 10.42105469 -5.00945313 10.24445312 -4.0625 10.0625 C-3.14597656 9.88847656 -2.22945312 9.71445312 -1.28515625 9.53515625 C0.95289844 9.22285012 0.95289844 9.22285012 2 8 C2.29386153 4.27775401 2.14809171 3.22213757 0 0 Z " fill="#7980A6" transform="translate(723,628)"/>
<path d="M0 0 C0.33 0 0.66 0 1 0 C1.50286934 1.9575985 2.0022099 3.91610377 2.5 5.875 C2.91765625 7.51082031 2.91765625 7.51082031 3.34375 9.1796875 C4 12 4 12 4 14 C6.475 14.99 6.475 14.99 9 16 C9 17.32 9 18.64 9 20 C9.99 20 10.98 20 12 20 C11.67 20.99 11.34 21.98 11 23 C6.11973119 20.95444052 4.34902434 17.57354209 2 13 C0.37522164 8.5125169 -0.23230342 4.76222012 0 0 Z " fill="#1D1B38" transform="translate(526,355)"/>
<path d="M0 0 C0.33 0 0.66 0 1 0 C1 7.92 1 15.84 1 24 C-0.32 24.33 -1.64 24.66 -3 25 C-3.33 22.69 -3.66 20.38 -4 18 C-3.01 18 -2.02 18 -1 18 C-0.505 9.09 -0.505 9.09 0 0 Z " fill="#5E6482" transform="translate(451,626)"/>
<path d="M0 0 C0.33 0 0.66 0 1 0 C1.33 1.98 1.66 3.96 2 6 C2.92941406 5.71125 3.85882813 5.4225 4.81640625 5.125 C6.05261719 4.75375 7.28882813 4.3825 8.5625 4 C9.78066406 3.62875 10.99882812 3.2575 12.25390625 2.875 C15.97923349 2.00485057 19.19065949 1.84311596 23 2 C23 2.33 23 2.66 23 3 C21.72125 3.309375 20.4425 3.61875 19.125 3.9375 C16.89898325 4.47605244 15.05260001 4.9737 13 6 C12.113125 6.12375 11.22625 6.2475 10.3125 6.375 C6.49600228 7.09509391 3.52033599 8.38064544 0 10 C0 6.7 0 3.4 0 0 Z " fill="#6151A8" transform="translate(472,495)"/>
<path d="M0 0 C1 3 1 3 0.0625 5.1875 C-0.4634375 6.0846875 -0.4634375 6.0846875 -1 7 C-0.34 7.33 0.32 7.66 1 8 C-1.13206212 12.67239145 -3.02502456 16.59287819 -7 20 C-5.69039355 12.73763698 -3.24043814 6.6169252 0 0 Z M1 6 C3 7 3 7 3 7 Z " fill="#705DC8" transform="translate(258,489)"/>
<path d="M0 0 C8.55570118 0.83879423 8.55570118 0.83879423 12 4 C12.63920324 7.40712201 12.46816719 10.73647806 12.3125 14.1875 C12.27866211 15.59805664 12.27866211 15.59805664 12.24414062 17.03710938 C12.18519227 19.35967473 12.10297785 21.67903776 12 24 C10 22 10 22 9.8046875 18.0859375 C9.81799624 16.51550649 9.84186398 14.94513779 9.875 13.375 C9.88402344 12.57320313 9.89304687 11.77140625 9.90234375 10.9453125 C9.92593777 8.96341477 9.96180935 6.98167019 10 5 C7.36 4.34 4.72 3.68 2 3 C2 2.34 2 1.68 2 1 C1.34 0.67 0.68 0.34 0 0 Z " fill="#7E69DC" transform="translate(682,482)"/>
<path d="M0 0 C1 2 1 2 0.4765625 4.13671875 C0.05503906 5.39935547 0.05503906 5.39935547 -0.375 6.6875 C-1.68960427 10.82340111 -2.53175071 14.69210649 -3 19 C-3.66 18.67 -4.32 18.34 -5 18 C-5.46806645 15.66255706 -5.82669794 13.30260921 -6.125 10.9375 C-6.29257812 9.64714844 -6.46015625 8.35679687 -6.6328125 7.02734375 C-6.75398437 6.02832031 -6.87515625 5.02929688 -7 4 C-5 6 -5 6 -5 9 C-4.34 9 -3.68 9 -3 9 C-2.814375 7.88625 -2.814375 7.88625 -2.625 6.75 C-2.04513299 4.19858515 -1.26291261 2.2732427 0 0 Z " fill="#967FE4" transform="translate(527,401)"/>
<path d="M0 0 C0.5625 1.9375 0.5625 1.9375 1 4 C0 5 0 5 -2.72265625 5.09765625 C-4.37587891 5.08025391 -4.37587891 5.08025391 -6.0625 5.0625 C-7.71958984 5.04896484 -7.71958984 5.04896484 -9.41015625 5.03515625 C-10.26480469 5.02355469 -11.11945312 5.01195312 -12 5 C-12 6.32 -12 7.64 -12 9 C-8.7 9 -5.4 9 -2 9 C-2 9.33 -2 9.66 -2 10 C-7.94 10.495 -7.94 10.495 -14 11 C-14 8.69 -14 6.38 -14 4 C-9.71 4 -5.42 4 -1 4 C-0.67 2.68 -0.34 1.36 0 0 Z " fill="#020305" transform="translate(632,625)"/>
<path d="M0 0 C2.77704031 1.38852015 3.03382737 2.96788482 4.1875 5.8125 C4.55230469 6.68519531 4.91710937 7.55789063 5.29296875 8.45703125 C6.04115271 11.14801336 5.9458895 12.415372 5 15 C4.566875 14.360625 4.13375 13.72125 3.6875 13.0625 C2.08760823 10.73253997 2.08760823 10.73253997 -1 10 C-0.67 6.7 -0.34 3.4 0 0 Z " fill="#705DC4" transform="translate(304,458)"/>
<path d="M0 0 C5.36402203 4.8091232 7.50668393 9.84691702 8 17 C7.79553933 19.70553773 7.42388105 22.31542 7 25 C6.67 25 6.34 25 6 25 C5.90203125 23.92621094 5.8040625 22.85242188 5.703125 21.74609375 C5.55292514 20.30980755 5.40183586 18.87361417 5.25 17.4375 C5.188125 16.73302734 5.12625 16.02855469 5.0625 15.30273438 C4.47156765 9.95972102 2.82755837 6.55742639 0 2 C0 1.34 0 0.68 0 0 Z " fill="#121023" transform="translate(514,398)"/>
<path d="M0 0 C1.32 0 2.64 0 4 0 C6.09570426 5.69398894 7.45018084 10.95198929 8 17 C5.54963723 14.54963723 4.73959002 12.26913961 3.4375 9.0625 C3.00308594 8.00160156 2.56867187 6.94070313 2.12109375 5.84765625 C1.36152662 3.91830281 0.65569405 1.96708216 0 0 Z " fill="#636889" transform="translate(579,625)"/>
<path d="M0 0 C0.66 0 1.32 0 2 0 C2.5625 1.9375 2.5625 1.9375 3 4 C2 5 2 5 -0.95922852 5.11352539 C-2.25272217 5.10828857 -3.54621582 5.10305176 -4.87890625 5.09765625 C-5.90889992 5.09553383 -5.90889992 5.09553383 -6.95970154 5.09336853 C-9.16067801 5.08775479 -11.36155409 5.07520007 -13.5625 5.0625 C-15.05143083 5.05748676 -16.54036324 5.05292355 -18.02929688 5.04882812 C-21.68623075 5.03778093 -25.34310558 5.02050713 -29 5 C-29 4.67 -29 4.34 -29 4 C-19.43 3.67 -9.86 3.34 0 3 C0 2.01 0 1.02 0 0 Z " fill="#11111B" transform="translate(301,516)"/>
<path d="M0 0 C0.33 0.66 0.66 1.32 1 2 C0.67 2.99 0.34 3.98 0 5 C-8.25 5 -16.5 5 -25 5 C-24.34 3.68 -23.68 2.36 -23 1 C-22.34 1 -21.68 1 -21 1 C-21 1.66 -21 2.32 -21 3 C-14.4 3.33 -7.8 3.66 -1 4 C-0.67 2.68 -0.34 1.36 0 0 Z " fill="#5C4BA1" transform="translate(251,566)"/>
<path d="M0 0 C2.58484592 0.9804588 3.94843031 1.93922143 5.75 4.0625 C7.46368617 8.0896625 7.2538117 11.68520104 7 16 C4 14 4 14 3.33984375 11.50390625 C3.20707031 10.53324219 3.07429688 9.56257812 2.9375 8.5625 C2.42040367 4.86403005 2.11254719 3.16882079 0 0 Z " fill="#72799F" transform="translate(306,626)"/>
<path d="M0 0 C0.99 0.33 1.98 0.66 3 1 C3 1.66 3 2.32 3 3 C6.96 3 10.92 3 15 3 C15 3.33 15 3.66 15 4 C7.08 4 -0.84 4 -9 4 C-9 3.34 -9 2.68 -9 2 C-6.03 2 -3.06 2 0 2 C0 1.34 0 0.68 0 0 Z " fill="#6352AD" transform="translate(291,537)"/>
<path d="M0 0 C0.4125 0.40992188 0.825 0.81984375 1.25 1.2421875 C5.68887572 5.38381708 9.02481279 6.95172154 15 8 C15 8.33 15 8.66 15 9 C7.99052133 10.45023697 7.99052133 10.45023697 3.5625 8.4375 C0.57276453 5.59360529 0.18425479 4.05360528 0 0 Z " fill="#11121F" transform="translate(703,277)"/>
<path d="M0 0 C1.65 0.33 3.3 0.66 5 1 C5.33 1.99 5.66 2.98 6 4 C5.67 4.66 5.34 5.32 5 6 C6.175625 6.4640625 6.175625 6.4640625 7.375 6.9375 C10 8 10 8 12 9 C11.67 9.66 11.34 10.32 11 11 C7.04 8.69 3.08 6.38 -1 4 C-0.67 2.68 -0.34 1.36 0 0 Z " fill="#1D1E36" transform="translate(346,289)"/>
<path d="M0 0 C2.49505962 2.49505962 2.35948376 3.67328888 2.625 7.125 C2.69976563 8.03507812 2.77453125 8.94515625 2.8515625 9.8828125 C2.92503906 10.93082031 2.92503906 10.93082031 3 12 C2.34 12 1.68 12 1 12 C0.67 12.66 0.34 13.32 0 14 C-1.31164842 11.37670316 -1.13262846 9.36301375 -1.125 6.4375 C-1.12757813 5.44621094 -1.13015625 4.45492188 -1.1328125 3.43359375 C-1 1 -1 1 0 0 Z " fill="#6450B1" transform="translate(629,502)"/>
<path d="M0 0 C2.31 0.33 4.62 0.66 7 1 C7 1.66 7 2.32 7 3 C9.64 3.66 12.28 4.32 15 5 C14.67 5.99 14.34 6.98 14 8 C7.49693252 7.38650307 7.49693252 7.38650307 5.3125 5.6875 C4.879375 5.130625 4.44625 4.57375 4 4 C3.278125 3.278125 2.55625 2.55625 1.8125 1.8125 C1.214375 1.214375 0.61625 0.61625 0 0 Z " fill="#1D1B3A" transform="translate(537,378)"/>
<path d="M0 0 C0.99 0.33 1.98 0.66 3 1 C3 1.99 3 2.98 3 4 C2.01 4 1.02 4 0 4 C0.66 5.65 1.32 7.3 2 9 C0.25 8.875 0.25 8.875 -2 8 C-4.25 4.9375 -4.25 4.9375 -6 2 C-4.68 2.33 -3.36 2.66 -2 3 C-1.34 2.01 -0.68 1.02 0 0 Z " fill="#7A65C0" transform="translate(366,721)"/>
<path d="M0 0 C0.33 0 0.66 0 1 0 C1 8.58 1 17.16 1 26 C0.01 25.67 -0.98 25.34 -2 25 C-2 24.34 -2 23.68 -2 23 C-2.33 22.34 -2.66 21.68 -3 21 C-2.34 20.67 -1.68 20.34 -1 20 C-0.67 13.4 -0.34 6.8 0 0 Z " fill="#5A5F7C" transform="translate(344,626)"/>
<path d="M0 0 C1.24546405 2.49092811 0.7767578 3.41080733 0 6 C1.65 6.33 3.3 6.66 5 7 C6 10 6 10 6 12 C7.29233607 13.37310707 8.62437146 14.71034824 10 16 C4.85599584 14.63835184 1.8743952 11.3115928 -1 7 C-1.796875 4.9609375 -1.796875 4.9609375 -2 3 C-1.34 2.01 -0.68 1.02 0 0 Z " fill="#5F4DA8" transform="translate(466,554)"/>
<path d="M0 0 C0.33 0.99 0.66 1.98 1 3 C0.690625 3.598125 0.38125 4.19625 0.0625 4.8125 C-1.30828261 7.6346995 -1.14075669 9.9033529 -1 13 C-3.0245738 11.06745228 -4.42105792 9.36841312 -6 7 C-9.56769552 6.26393501 -9.56769552 6.26393501 -13 6 C-13 5.67 -13 5.34 -13 5 C-12.31292969 4.97421875 -11.62585938 4.9484375 -10.91796875 4.921875 C-10.01691406 4.86515625 -9.11585938 4.8084375 -8.1875 4.75 C-7.29417969 4.70359375 -6.40085937 4.6571875 -5.48046875 4.609375 C-2.83946485 4.20878584 -2.83946485 4.20878584 -1.17578125 1.953125 C-0.78777344 1.30859375 -0.39976562 0.6640625 0 0 Z " fill="#5A607C" transform="translate(790,635)"/>
<path d="M0 0 C-2.33214148 1.20628008 -4.49642139 2.1654738 -7 3 C-6.01 3.33 -5.02 3.66 -4 4 C-9.75 7 -9.75 7 -12 7 C-12.99 7.495 -12.99 7.495 -14 8 C-11.33342809 1.2123624 -7.01275254 -0.55001981 0 0 Z " fill="#737BA0" transform="translate(687,624)"/>
<path d="M0 0 C0.33 0.66 0.66 1.32 1 2 C1.66 2 2.32 2 3 2 C4.64453125 3.20703125 4.64453125 3.20703125 6 5 C6.07421875 7.26171875 6.07421875 7.26171875 5.6875 9.6875 C5.50767578 10.89986328 5.50767578 10.89986328 5.32421875 12.13671875 C5.21722656 12.75160156 5.11023438 13.36648438 5 14 C2.81385576 11.81385576 2.31743465 10.46120051 1.375 7.5625 C1.11460937 6.78003906 0.85421875 5.99757813 0.5859375 5.19140625 C0 3 0 3 0 0 Z " fill="#725EC7" transform="translate(298,501)"/>
<path d="M0 0 C1.74965358 -0.05429959 3.49979787 -0.09292823 5.25 -0.125 C6.22453125 -0.14820313 7.1990625 -0.17140625 8.203125 -0.1953125 C11.0196498 0.00137219 12.60949036 0.55431084 15 2 C14.67 2.99 14.34 3.98 14 5 C13.34 4.67 12.68 4.34 12 4 C10.52517395 3.79850574 9.0447732 3.63630098 7.5625 3.5 C4.78512294 3.24376752 2.67337533 2.89112511 0 2 C0 1.34 0 0.68 0 0 Z " fill="#575E79" transform="translate(468,626)"/>
<path d="M0 0 C1.65 0 3.3 0 5 0 C5.66 1.98 6.32 3.96 7 6 C4.69 6 2.38 6 0 6 C0 4.02 0 2.04 0 0 Z " fill="#6351AF" transform="translate(524,564)"/>
<path d="M0 0 C3.96 0.99 3.96 0.99 8 2 C6.1875 3.5625 6.1875 3.5625 4 5 C3.01 4.67 2.02 4.34 1 4 C0.67 4.99 0.34 5.98 0 7 C-0.66 5.68 -1.32 4.36 -2 3 C-1.34 2.01 -0.68 1.02 0 0 Z " fill="#6451AF" transform="translate(633,553)"/>
<path d="M0 0 C2.55934601 1.279673 2.6989233 2.24201036 3.6875 4.875 C3.95949219 5.57367187 4.23148437 6.27234375 4.51171875 6.9921875 C5 9 5 9 4 12 C3.67 11.34 3.34 10.68 3 10 C2.67 10.66 2.34 11.32 2 12 C1.01 11.67 0.02 11.34 -1 11 C-0.73958333 9.01432292 -0.47916667 7.02864583 -0.21875 5.04296875 C0.053233 2.84528294 0.053233 2.84528294 0 0 Z " fill="#705CC7" transform="translate(324,511)"/>
<path d="M0 0 C4.22753707 0.67640593 7.44197656 2.7174944 11 5 C11.33 5.99 11.66 6.98 12 8 C7.1725201 6.58707905 3.2837641 4.57025846 -1 2 C-0.67 1.34 -0.34 0.68 0 0 Z " fill="#17152F" transform="translate(478,355)"/>
<path d="M0 0 C1.32 0 2.64 0 4 0 C6.3125 2.625 6.3125 2.625 8 6 C7.75 9.375 7.75 9.375 7 12 C6.34 11.34 5.68 10.68 5 10 C5 9.01 5 8.02 5 7 C4.34 6.67 3.68 6.34 3 6 C1.95191959 4.02477154 0.9479589 2.02518491 0 0 Z " fill="#121120" transform="translate(688,293)"/>
<path d="M0 0 C3.96 0 7.92 0 12 0 C11.67 1.65 11.34 3.3 11 5 C10.34 5 9.68 5 9 5 C9 4.34 9 3.68 9 3 C7.700625 2.87625 6.40125 2.7525 5.0625 2.625 C2.84765625 2.4140625 2.84765625 2.4140625 1 2 C0.67 1.34 0.34 0.68 0 0 Z " fill="#604EAA" transform="translate(428,448)"/>
<path d="M0 0 C2.475 0.99 2.475 0.99 5 2 C5 3.32 5 4.64 5 6 C3.34385343 6.38218767 1.67542976 6.71395102 0 7 C-1 6 -1 6 -1.125 3.5 C-1 1 -1 1 0 0 Z " fill="#383159" transform="translate(776,399)"/>
<path d="M0 0 C0 1.33333333 0 2.66666667 0 4 C-3.96 4 -7.92 4 -12 4 C-12.33 3.01 -12.66 2.02 -13 1 C-6.565 0.505 -6.565 0.505 0 0 Z " fill="#6151A7" transform="translate(520,528)"/>
<path d="M0 0 C0.66 0 1.32 0 2 0 C2.19466332 1.79090253 2.38051213 3.58276505 2.5625 5.375 C2.66691406 6.37273437 2.77132812 7.37046875 2.87890625 8.3984375 C3 11 3 11 2 13 C1.34 13 0.68 13 0 13 C-0.96661363 9.87819599 -0.98988909 7.47916205 -0.5625 4.25 C-0.46066406 3.45078125 -0.35882812 2.6515625 -0.25390625 1.828125 C-0.17011719 1.22484375 -0.08632813 0.6215625 0 0 Z " fill="#61539F" transform="translate(697,264)"/>
<path d="M0 0 C-0.639375 0.886875 -1.27875 1.77375 -1.9375 2.6875 C-3.80829757 5.69211428 -4.59423966 7.5510371 -5 11 C-7 8 -7 8 -7 5 C-6.34 5 -5.68 5 -5 5 C-5.66 3.35 -6.32 1.7 -7 0 C-2.25 -1.125 -2.25 -1.125 0 0 Z " fill="#8D75D8" transform="translate(373,725)"/>
<path d="M0 0 C2.0625 0.4375 2.0625 0.4375 4 1 C3.67 2.65 3.34 4.3 3 6 C1.68 5.67 0.36 5.34 -1 5 C-1 1 -1 1 0 0 Z " fill="#6D5CB0" transform="translate(394,399)"/>
<path d="M0 0 C0.91007813 0.10183594 1.82015625 0.20367187 2.7578125 0.30859375 C3.45648437 0.39238281 4.15515625 0.47617187 4.875 0.5625 C4.875 0.8925 4.875 1.2225 4.875 1.5625 C3.43842755 1.89980842 2.00069907 2.23219591 0.5625 2.5625 C-0.63826172 2.8409375 -0.63826172 2.8409375 -1.86328125 3.125 C-4.125 3.5625 -4.125 3.5625 -7.125 3.5625 C-7.125 2.5725 -7.125 1.5825 -7.125 0.5625 C-4.50184968 -0.74907516 -2.89466564 -0.33399988 0 0 Z " fill="#16142A" transform="translate(549.125,388.4375)"/>
<path d="M0 0 C0.66 1.32 1.32 2.64 2 4 C0.02 6.97 0.02 6.97 -2 10 C-2 8.66666667 -2 7.33333333 -2 6 C-3.65 6 -5.3 6 -7 6 C-5.6100869 3.22017379 -3.81341647 3.12536659 -1 2 C-0.67 1.34 -0.34 0.68 0 0 Z " fill="#1E1942" transform="translate(517,364)"/>
<path d="M0 0 C0 2.87137415 -0.27113266 5.2303041 -1 8 C-1.99 8.495 -1.99 8.495 -3 9 C-3.75 7.3125 -3.75 7.3125 -4 5 C-2.0625 2.25 -2.0625 2.25 0 0 Z M2 1 C2.66 1.33 3.32 1.66 4 2 C3.34 3.32 2.68 4.64 2 6 C1.67 5.01 1.34 4.02 1 3 C1.33 2.34 1.66 1.68 2 1 Z " fill="#725EC3" transform="translate(361,495)"/>
<path d="M0 0 C2 2 2 2 2 5 C1.34 5 0.68 5 0 5 C0 5.99 0 6.98 0 8 C-0.66 8 -1.32 8 -2 8 C-2.66 9.32 -3.32 10.64 -4 12 C-3.71640113 10.5608866 -3.42278601 9.12374482 -3.125 7.6875 C-2.96257812 6.88699219 -2.80015625 6.08648437 -2.6328125 5.26171875 C-2 3 -2 3 0 0 Z " fill="#6D59C3" transform="translate(269,460)"/>
<path d="M0 0 C1.98 1.32 3.96 2.64 6 4 C4.33333333 4 2.66666667 4 1 4 C0.67 5.32 0.34 6.64 0 8 C-0.99 7.67 -1.98 7.34 -3 7 C-2.67 5.35 -2.34 3.7 -2 2 C-1.34 2 -0.68 2 0 2 C0 1.34 0 0.68 0 0 Z " fill="#927BDA" transform="translate(532,377)"/>
<path d="M0 0 C1.32 0.66 2.64 1.32 4 2 C3.67 3.32 3.34 4.64 3 6 C1.68 5.67 0.36 5.34 -1 5 C-1 1 -1 1 0 0 Z " fill="#7664BA" transform="translate(624,720)"/>
<path d="M0 0 C3.08089673 2.77280706 4.68775452 5.06326356 6 9 C3.625 8.8125 3.625 8.8125 1 8 C-0.3125 5.4375 -0.3125 5.4375 -1 3 C0.485 3.99 0.485 3.99 2 5 C1.34 3.35 0.68 1.7 0 0 Z " fill="#767DA3" transform="translate(271,643)"/>
<path d="M0 0 C0.66 0.33 1.32 0.66 2 1 C1.938125 1.7425 1.87625 2.485 1.8125 3.25 C2.03094296 6.45383006 2.90250005 7.64031256 5 10 C1.20620942 8.50958227 -0.68343758 6.30937488 -3 3 C-3 2.34 -3 1.68 -3 1 C-2.01 0.67 -1.02 0.34 0 0 Z " fill="#6554AE" transform="translate(635,518)"/>
<path d="M0 0 C1.8871875 0.0309375 1.8871875 0.0309375 3.8125 0.0625 C4.1425 1.0525 4.4725 2.0425 4.8125 3.0625 C1.1825 3.0625 -2.4475 3.0625 -6.1875 3.0625 C-6.5175 2.4025 -6.8475 1.7425 -7.1875 1.0625 C-4.43671116 0.14557039 -2.82801087 -0.04636083 0 0 Z " fill="#10111C" transform="translate(499.1875,514.9375)"/>
<path d="M0 0 C0.33 0 0.66 0 1 0 C1.05416188 1.60379341 1.09286638 3.20811406 1.125 4.8125 C1.14820313 5.70582031 1.17140625 6.59914063 1.1953125 7.51953125 C1 10 1 10 -1 13 C-1.2236337 11.58566794 -1.42826476 10.16832382 -1.625 8.75 C-1.74101563 7.96109375 -1.85703125 7.1721875 -1.9765625 6.359375 C-2.00319395 3.67847541 -1.36592084 2.27305911 0 0 Z " fill="#141226" transform="translate(527,405)"/>
<path d="M0 0 C1.65 0.33 3.3 0.66 5 1 C4.67 2.32 4.34 3.64 4 5 C2.35 4.67 0.7 4.34 -1 4 C-0.67 2.68 -0.34 1.36 0 0 Z " fill="#6958AC" transform="translate(596,238)"/>
<path d="M0 0 C1.32 1.32 2.64 2.64 4 4 C3.01 4 2.02 4 1 4 C1 8.95 1 13.9 1 19 C0.67 19 0.34 19 0 19 C0 12.73 0 6.46 0 0 Z " fill="#14161D" transform="translate(435,633)"/>
<path d="M0 0 C0.33 0.99 0.66 1.98 1 3 C-0.125 5.125 -0.125 5.125 -2 7 C-4.6875 7.75 -4.6875 7.75 -7 8 C-4.375 3.125 -4.375 3.125 -1 2 C-0.67 1.34 -0.34 0.68 0 0 Z " fill="#70779B" transform="translate(696,642)"/>
<path d="M0 0 C0.33 0.66 0.66 1.32 1 2 C-3.04141194 2.63394697 -6.9065307 3.12404452 -11 3 C-10 1 -10 1 -8.22265625 0.33203125 C-7.15337891 0.07486328 -7.15337891 0.07486328 -6.0625 -0.1875 C-5.35222656 -0.36667969 -4.64195312 -0.54585937 -3.91015625 -0.73046875 C-2 -1 -2 -1 0 0 Z " fill="#5F6583" transform="translate(689,625)"/>
<path d="M0 0 C4.60853797 0.72008406 8.67237409 2.31295939 13 4 C9.59598052 5.13732426 7.22543336 4.83989957 3.75 4.0625 C2.85796875 3.86785156 1.9659375 3.67320312 1.046875 3.47265625 C0.37140625 3.31667969 -0.3040625 3.16070313 -1 3 C-0.67 2.01 -0.34 1.02 0 0 Z " fill="#7863D2" transform="translate(633,551)"/>
<path d="M0 0 C2.67289025 3.87671106 2.01875653 7.79267603 1.625 12.25 C1.53992188 13.36761719 1.53992188 13.36761719 1.453125 14.5078125 C1.31223742 16.33935108 1.15748116 18.16981352 1 20 C0.67 20 0.34 20 0 20 C-0.1946838 17.22949974 -0.38102792 14.45886998 -0.5625 11.6875 C-0.61857422 10.90181641 -0.67464844 10.11613281 -0.73242188 9.30664062 C-0.78076172 8.54931641 -0.82910156 7.79199219 -0.87890625 7.01171875 C-0.9260376 6.31522217 -0.97316895 5.61872559 -1.02172852 4.90112305 C-1 3 -1 3 0 0 Z " fill="#0F111C" transform="translate(376,514)"/>
<path d="M0 0 C0.66 0.33 1.32 0.66 2 1 C-3.75 5.875 -3.75 5.875 -6 7 C-8.125 6.0625 -8.125 6.0625 -10 5 C-8.35 4.67 -6.7 4.34 -5 4 C-5 3.34 -5 2.68 -5 2 C-4.360625 1.855625 -3.72125 1.71125 -3.0625 1.5625 C-1.02454854 1.18992819 -1.02454854 1.18992819 0 0 Z " fill="#11121E" transform="translate(689,280)"/>
<path d="M0 0 C-3.06117568 2.62386487 -3.73173127 3 -8 3 C-8.33 3.99 -8.66 4.98 -9 6 C-9.66 5.01 -10.32 4.02 -11 3 C-8.21756596 -1.17365106 -4.53441502 -0.22300402 0 0 Z " fill="#11111C" transform="translate(381,724)"/>
<path d="M0 0 C1.125 1.6875 1.125 1.6875 2 4 C1.125 6.75 1.125 6.75 0 9 C0.66 9.33 1.32 9.66 2 10 C1.34 10 0.68 10 0 10 C-0.33 10.99 -0.66 11.98 -1 13 C-1.33 9.04 -1.66 5.08 -2 1 C-1.34 0.67 -0.68 0.34 0 0 Z " fill="#5E4CA9" transform="translate(464,538)"/>
<path d="M0 0 C-0.99 1.485 -0.99 1.485 -2 3 C-1.34 3.66 -0.68 4.32 0 5 C-4.26826873 5 -4.93882432 4.62386487 -8 2 C-4.77208445 -0.1519437 -3.71599191 -0.20086443 0 0 Z " fill="#7F6AC9" transform="translate(512,386)"/>
<path d="M0 0 C0.66 0.33 1.32 0.66 2 1 C-1.12621626 4.39417765 -3.56541027 6.6062718 -8 8 C-3.375 2.25 -3.375 2.25 0 0 Z " fill="#6452AE" transform="translate(596,486)"/>
<path d="M0 0 C2.97 1.65 5.94 3.3 9 5 C9 5.33 9 5.66 9 6 C7.35 6 5.7 6 4 6 C4 5.34 4 4.68 4 4 C2.68 3.67 1.36 3.34 0 3 C0 2.01 0 1.02 0 0 Z " fill="#1C183D" transform="translate(485,373)"/>
<path d="M0 0 C0.33 0 0.66 0 1 0 C1.33 1.98 1.66 3.96 2 6 C3.65 6 5.3 6 7 6 C4.61426621 7.89213369 2.92824652 9.02391783 0 10 C0 6.7 0 3.4 0 0 Z " fill="#5947A0" transform="translate(472,495)"/>
<path d="M0 0 C0.66 0.33 1.32 0.66 2 1 C-0.64 3.97 -3.28 6.94 -6 10 C-6 7.29745539 -5.96569331 5.49470772 -5 3 C-3 1.8125 -3 1.8125 -1 1 C-0.67 0.67 -0.34 0.34 0 0 Z " fill="#6552AE" transform="translate(367,490)"/>
<path d="M0 0 C0.66 0 1.32 0 2 0 C5.42857143 7.28571429 5.42857143 7.28571429 5 12 C1.66226291 8.35883227 1.02135098 4.71392758 0 0 Z " fill="#06060A" transform="translate(315,483)"/>
<path d="M0 0 C1.65 0 3.3 0 5 0 C4.00233891 2.49415272 3.31383315 3.78740335 1.0625 5.3125 C-1 6 -1 6 -4 5 C-3.01 4.34 -2.02 3.68 -1 3 C-0.67 2.01 -0.34 1.02 0 0 Z " fill="#6552AD" transform="translate(641,485)"/>
<path d="M0 0 C0 0.99 0 1.98 0 3 C-4.29 2.67 -8.58 2.34 -13 2 C-13 1.67 -13 1.34 -13 1 C-8.59085217 -0.10228696 -4.51617599 -0.07654536 0 0 Z " fill="#8067CC" transform="translate(503,385)"/>
<path d="M0 0 C2.9375 1.25 2.9375 1.25 6 3 C6.875 5.1875 6.875 5.1875 7 7 C3.535 5.02 3.535 5.02 0 3 C0 2.01 0 1.02 0 0 Z " fill="#1A1734" transform="translate(476,368)"/>
<path d="M0 0 C0 3.10551666 -0.5393715 4.35261084 -2 7 C-3.65 7 -5.3 7 -7 7 C-4.66666667 4.66666667 -2.33333333 2.33333333 0 0 Z " fill="#7A66D3" transform="translate(519,549)"/>
<path d="M0 0 C3.625 -0.1875 3.625 -0.1875 7 0 C7.33 0.99 7.66 1.98 8 3 C4.7 3 1.4 3 -2 3 C-1.34 2.01 -0.68 1.02 0 0 Z " fill="#11111B" transform="translate(663,515)"/>
<path d="M0 0 C2.35953094 2.35953094 2.49141413 3.77895617 3 7 C1.68 7 0.36 7 -1 7 C-1 6.34 -1 5.68 -1 5 C-1.66 4.67 -2.32 4.34 -3 4 C-2.01 3.67 -1.02 3.34 0 3 C0 2.01 0 1.02 0 0 Z " fill="#6452AE" transform="translate(322,509)"/>
<path d="M0 0 C1.32 0 2.64 0 4 0 C4.33 0.66 4.66 1.32 5 2 C5.99 2.66 6.98 3.32 8 4 C4.7 3.67 1.4 3.34 -2 3 C-1.34 2.01 -0.68 1.02 0 0 Z " fill="#7762CD" transform="translate(673,495)"/>
<path d="M0 0 C1.5625 1.5625 1.5625 1.5625 3 4 C2.8125 7.6875 2.8125 7.6875 2 11 C1.01 11.495 1.01 11.495 0 12 C-1.28571429 3.42857143 -1.28571429 3.42857143 0 0 Z " fill="#614FAC" transform="translate(424,453)"/>
<path d="M0 0 C5.75 1.75 5.75 1.75 8 4 C6.35 4.33 4.7 4.66 3 5 C2.67 4.01 2.34 3.02 2 2 C1.34 2 0.68 2 0 2 C0 1.34 0 0.68 0 0 Z " fill="#201D42" transform="translate(496,390)"/>
<path d="M0 0 C1.875 0.25 1.875 0.25 4 1 C5.3125 2.9375 5.3125 2.9375 6 5 C5.67 5.66 5.34 6.32 5 7 C0 1.125 0 1.125 0 0 Z " fill="#606787" transform="translate(303,626)"/>
<path d="M0 0 C-1.423125 0.928125 -1.423125 0.928125 -2.875 1.875 C-5.94445109 3.81970969 -5.94445109 3.81970969 -8 6 C-8.33 5.01 -8.66 4.02 -9 3 C-7 0 -7 0 -5.0625 -0.75 C-3 -1 -3 -1 0 0 Z " fill="#6653B0" transform="translate(379,485)"/>
<path d="M0 0 C2 3 2 3 1.625 5.6875 C1.41875 6.450625 1.2125 7.21375 1 8 C0.34 8 -0.32 8 -1 8 C-1.93065133 5.39417629 -2.14917407 4.35801776 -1.0625 1.75 C-0.711875 1.1725 -0.36125 0.595 0 0 Z " fill="#120F1D" transform="translate(287,472)"/>
<path d="M0 0 C0 0.99 0 1.98 0 3 C0.3062434 4.33981486 0.63451555 5.67511887 1 7 C-3.75 5.125 -3.75 5.125 -6 4 C-4.60804085 1.2160817 -2.84424221 1.02101003 0 0 Z " fill="#6B5AAE" transform="translate(691,284)"/>
<path d="M0 0 C2.43929746 1.92576115 4.80090595 3.80090595 7 6 C6.01 6.33 5.02 6.66 4 7 C1.8125 5.8125 1.8125 5.8125 0 4 C0 2.68 0 1.36 0 0 Z " fill="#5E6482" transform="translate(336,639)"/>
<path d="M0 0 C1.98 0 3.96 0 6 0 C6 0.99 6 1.98 6 3 C4.02 3 2.04 3 0 3 C0 2.01 0 1.02 0 0 Z " fill="#6E71A1" transform="translate(384,638)"/>
<path d="M0 0 C1.32 0.66 2.64 1.32 4 2 C3.67 3.98 3.34 5.96 3 8 C1.68 7.01 0.36 6.02 -1 5 C-0.67 3.35 -0.34 1.7 0 0 Z " fill="#6452AE" transform="translate(290,474)"/>
<path d="M0 0 C2.31 0 4.62 0 7 0 C7 0.99 7 1.98 7 3 C5.35 3.33 3.7 3.66 2 4 C1.34 2.68 0.68 1.36 0 0 Z " fill="#6555AE" transform="translate(678,496)"/>
<path d="M0 0 C3 1 3 1 4.25 3.375 C5 6 5 6 4 9 C3.67 7.35 3.34 5.7 3 4 C2.01 4 1.02 4 0 4 C0 2.68 0 1.36 0 0 Z " fill="#6351AE" transform="translate(313,489)"/>
<path d="M0 0 C0.94875 0.04125 1.8975 0.0825 2.875 0.125 C2.545 1.115 2.215 2.105 1.875 3.125 C-0.435 2.795 -2.745 2.465 -5.125 2.125 C-3.125 0.125 -3.125 0.125 0 0 Z " fill="#19162D" transform="translate(549.125,382.875)"/>
<path d="M0 0 C1.32 0 2.64 0 4 0 C4 0.66 4 1.32 4 2 C4.99 2 5.98 2 7 2 C7 2.66 7 3.32 7 4 C4.69 3.67 2.38 3.34 0 3 C0 2.01 0 1.02 0 0 Z " fill="#1F1B3E" transform="translate(489,361)"/>
<path d="M0 0 C0.33 0.66 0.66 1.32 1 2 C1.66 2 2.32 2 3 2 C3.33 2.99 3.66 3.98 4 5 C2.35 5.33 0.7 5.66 -1 6 C-1.33 5.01 -1.66 4.02 -2 3 C-1.34 2.01 -0.68 1.02 0 0 Z " fill="#7260B9" transform="translate(696,275)"/>
</svg>
